<svg xmlns="http://www.w3.org/2000/svg" xmlns:xlink="http://www.w3.org/1999/xlink" width="500" zoomAndPan="magnify" viewBox="0 0 375 374.999991" height="500" preserveAspectRatio="xMidYMid meet" version="1.0"><defs><clipPath id="ed69b7a79e"><path d="M 13.148438 12.660156 L 337 12.660156 L 337 353.910156 L 13.148438 353.910156 Z M 13.148438 12.660156 " clip-rule="nonzero"/></clipPath><clipPath id="aad512f929"><path d="M 277 199 L 361.898438 199 L 361.898438 349 L 277 349 Z M 277 199 " clip-rule="nonzero"/></clipPath></defs><g clip-path="url(#ed69b7a79e)"><path fill="#ff3131" d="M 261.746094 318.351562 L 245.140625 318.351562 C 245.5625 317.167969 245.835938 315.917969 245.835938 314.589844 L 245.835938 205.246094 C 245.835938 199.027344 240.773438 193.96875 234.558594 193.96875 L 72.644531 193.96875 L 72.644531 108.507812 C 72.644531 102.292969 77.703125 97.234375 83.917969 97.234375 L 145.21875 97.234375 C 147.125 117.871094 164.515625 134.09375 185.644531 134.09375 L 215.929688 134.09375 L 215.929688 158.1875 C 215.929688 164.402344 210.871094 169.460938 204.65625 169.460938 L 152.785156 169.460938 C 151.0625 161.773438 144.203125 156 136.003906 156 C 126.507812 156 118.78125 163.726562 118.78125 173.222656 C 118.78125 182.714844 126.507812 190.441406 136.003906 190.441406 C 144.207031 190.441406 151.0625 184.671875 152.785156 176.980469 L 204.65625 176.980469 C 215.015625 176.980469 223.449219 168.550781 223.449219 158.1875 L 223.449219 134.09375 L 240.355469 134.09375 L 240.355469 158.1875 C 240.355469 168.550781 248.785156 176.980469 259.148438 176.980469 L 302.515625 176.980469 C 304.234375 184.667969 311.09375 190.441406 319.300781 190.441406 C 328.796875 190.441406 336.523438 182.71875 336.523438 173.222656 C 336.523438 163.722656 328.796875 156 319.300781 156 C 311.09375 156 304.234375 161.773438 302.515625 169.460938 L 259.144531 169.460938 C 252.925781 169.460938 247.867188 164.402344 247.867188 158.1875 L 247.867188 134.09375 L 284.121094 134.09375 C 306.511719 134.09375 324.730469 115.871094 324.730469 93.472656 C 324.730469 71.078125 306.511719 52.863281 284.121094 52.863281 C 281.179688 52.863281 278.25 53.183594 275.367188 53.832031 C 271.945312 30.371094 251.820312 12.609375 227.65625 12.609375 C 203.621094 12.609375 183.652344 29.894531 179.984375 53.300781 C 161.382812 55.894531 146.929688 71.074219 145.199219 89.714844 L 83.917969 89.714844 C 73.554688 89.714844 65.125 98.144531 65.125 108.507812 L 65.125 193.96875 L 44.113281 193.96875 C 37.898438 193.96875 32.839844 199.027344 32.839844 205.246094 L 32.839844 314.589844 C 32.839844 315.917969 33.109375 317.167969 33.535156 318.351562 L 16.933594 318.351562 C 14.859375 318.351562 13.171875 320.03125 13.171875 322.109375 L 13.171875 333.222656 C 13.171875 344.679688 22.492188 353.996094 33.941406 353.996094 L 244.734375 353.996094 C 256.183594 353.996094 265.5 344.679688 265.5 333.222656 L 265.5 322.109375 C 265.503906 320.03125 263.820312 318.351562 261.746094 318.351562 Z M 319.296875 163.515625 C 324.648438 163.515625 329 167.867188 329 173.222656 C 329 178.574219 324.648438 182.925781 319.296875 182.925781 C 313.941406 182.925781 309.585938 178.574219 309.585938 173.222656 C 309.585938 167.867188 313.941406 163.515625 319.296875 163.515625 Z M 72.644531 333.933594 L 72.644531 336.753906 C 72.644531 338.832031 70.960938 340.511719 68.882812 340.511719 C 66.808594 340.511719 65.125 338.832031 65.125 336.753906 L 65.125 333.933594 C 65.125 331.855469 66.808594 330.175781 68.882812 330.175781 C 70.960938 330.175781 72.644531 331.855469 72.644531 333.933594 Z M 55.367188 333.933594 L 55.367188 336.753906 C 55.367188 338.832031 53.683594 340.511719 51.609375 340.511719 C 49.535156 340.511719 47.851562 338.832031 47.851562 336.753906 L 47.851562 333.933594 C 47.851562 331.855469 49.535156 330.175781 51.609375 330.175781 C 53.683594 330.175781 55.367188 331.855469 55.367188 333.933594 Z M 68.882812 217.503906 C 74.238281 217.503906 78.589844 221.859375 78.589844 227.210938 C 78.589844 232.5625 74.238281 236.914062 68.882812 236.914062 C 63.53125 236.914062 59.175781 232.5625 59.175781 227.210938 C 59.175781 221.859375 63.53125 217.503906 68.882812 217.503906 Z M 40.355469 205.246094 C 40.355469 203.171875 42.042969 201.484375 44.113281 201.484375 L 65.125 201.484375 L 65.125 210.429688 C 57.4375 212.152344 51.660156 219.007812 51.660156 227.210938 C 51.660156 236.703125 59.386719 244.433594 68.882812 244.433594 C 78.378906 244.433594 86.105469 236.703125 86.105469 227.210938 C 86.105469 219.007812 80.332031 212.152344 72.644531 210.429688 L 72.644531 201.484375 L 234.558594 201.484375 C 236.628906 201.484375 238.316406 203.171875 238.316406 205.246094 L 238.316406 314.589844 C 238.316406 316.667969 236.628906 318.351562 234.558594 318.351562 L 169.335938 318.351562 C 169.320312 318.351562 169.308594 318.351562 169.292969 318.351562 L 44.113281 318.351562 C 42.042969 318.351562 40.355469 316.667969 40.355469 314.589844 Z M 40.355469 205.246094 " fill-opacity="1" fill-rule="nonzero"/></g><path fill="#ff3131" d="M 146.136719 289.949219 C 146.136719 290.40625 146.089844 290.859375 146.003906 291.304688 C 145.914062 291.753906 145.78125 292.1875 145.605469 292.609375 C 145.433594 293.03125 145.21875 293.429688 144.964844 293.8125 C 144.710938 294.191406 144.421875 294.542969 144.101562 294.863281 C 143.777344 295.1875 143.425781 295.476562 143.046875 295.726562 C 142.667969 295.980469 142.265625 296.195312 141.847656 296.371094 C 141.425781 296.546875 140.988281 296.675781 140.542969 296.765625 C 140.09375 296.855469 139.640625 296.898438 139.1875 296.898438 C 138.730469 296.898438 138.277344 296.855469 137.832031 296.765625 C 137.382812 296.675781 136.949219 296.546875 136.527344 296.371094 C 136.105469 296.195312 135.703125 295.980469 135.324219 295.726562 C 134.945312 295.476562 134.59375 295.1875 134.273438 294.863281 C 133.949219 294.542969 133.660156 294.191406 133.40625 293.8125 C 133.152344 293.429688 132.941406 293.03125 132.765625 292.609375 C 132.589844 292.1875 132.460938 291.753906 132.371094 291.304688 C 132.28125 290.859375 132.238281 290.40625 132.238281 289.949219 C 132.238281 289.492188 132.28125 289.042969 132.371094 288.59375 C 132.460938 288.144531 132.589844 287.710938 132.765625 287.289062 C 132.941406 286.867188 133.152344 286.46875 133.40625 286.089844 C 133.660156 285.710938 133.949219 285.359375 134.273438 285.035156 C 134.59375 284.710938 134.945312 284.425781 135.324219 284.171875 C 135.703125 283.917969 136.105469 283.703125 136.527344 283.527344 C 136.949219 283.355469 137.382812 283.222656 137.832031 283.132812 C 138.277344 283.042969 138.730469 283 139.1875 283 C 139.640625 283 140.09375 283.042969 140.542969 283.132812 C 140.988281 283.222656 141.425781 283.355469 141.847656 283.527344 C 142.265625 283.703125 142.667969 283.917969 143.046875 284.171875 C 143.425781 284.425781 143.777344 284.710938 144.101562 285.035156 C 144.421875 285.359375 144.710938 285.710938 144.964844 286.089844 C 145.21875 286.46875 145.433594 286.867188 145.605469 287.289062 C 145.78125 287.710938 145.914062 288.144531 146.003906 288.59375 C 146.089844 289.042969 146.136719 289.492188 146.136719 289.949219 Z M 146.136719 289.949219 " fill-opacity="1" fill-rule="nonzero"/><path fill="#ff3131" d="M 139.1875 261.214844 C 129.621094 261.214844 120.710938 265.949219 115.359375 273.882812 C 114.199219 275.601562 114.652344 277.9375 116.371094 279.101562 C 118.09375 280.261719 120.429688 279.808594 121.589844 278.085938 C 125.546875 272.226562 132.125 268.730469 139.1875 268.730469 C 146.355469 268.730469 152.984375 272.308594 156.933594 278.300781 C 157.65625 279.398438 158.855469 279.992188 160.078125 279.992188 C 160.785156 279.992188 161.5 279.789062 162.140625 279.371094 C 163.871094 278.230469 164.355469 275.898438 163.210938 274.167969 C 157.871094 266.054688 148.890625 261.214844 139.1875 261.214844 Z M 139.1875 261.214844 " fill-opacity="1" fill-rule="nonzero"/><path fill="#ff3131" d="M 101.308594 264.417969 C 109.835938 251.804688 123.992188 244.269531 139.1875 244.269531 C 154.589844 244.285156 168.851562 251.972656 177.347656 264.835938 C 178.070312 265.929688 179.269531 266.523438 180.484375 266.523438 C 181.195312 266.523438 181.914062 266.320312 182.554688 265.902344 C 184.285156 264.753906 184.761719 262.425781 183.621094 260.691406 C 173.734375 245.71875 157.125 236.769531 139.191406 236.753906 C 121.496094 236.753906 105.003906 245.523438 95.082031 260.210938 C 93.921875 261.929688 94.371094 264.265625 96.09375 265.433594 C 97.8125 266.585938 100.148438 266.140625 101.308594 264.417969 Z M 101.308594 264.417969 " fill-opacity="1" fill-rule="nonzero"/><g clip-path="url(#aad512f929)"><path fill="#ff3131" d="M 348.742188 199.777344 L 289.992188 199.777344 C 282.988281 199.777344 277.289062 205.480469 277.289062 212.492188 L 277.289062 335.476562 C 277.289062 342.484375 282.988281 348.1875 289.992188 348.1875 L 348.742188 348.1875 C 355.75 348.1875 361.449219 342.484375 361.449219 335.476562 L 361.449219 212.492188 C 361.449219 205.476562 355.75 199.777344 348.742188 199.777344 Z M 319.289062 271.886719 C 316.167969 271.886719 313.261719 273.433594 311.507812 276.03125 C 310.347656 277.753906 308.011719 278.199219 306.292969 277.046875 C 304.570312 275.882812 304.121094 273.546875 305.28125 271.824219 C 308.429688 267.15625 313.667969 264.371094 319.289062 264.371094 C 325 264.371094 330.285156 267.222656 333.425781 271.996094 C 334.566406 273.726562 334.085938 276.058594 332.351562 277.199219 C 331.714844 277.617188 330.996094 277.820312 330.285156 277.820312 C 329.066406 277.820312 327.867188 277.226562 327.144531 276.128906 C 325.402344 273.472656 322.460938 271.886719 319.289062 271.886719 Z M 324.730469 281.28125 C 324.730469 284.277344 322.292969 286.714844 319.292969 286.714844 C 316.296875 286.714844 313.863281 284.277344 313.863281 281.28125 C 313.863281 278.28125 316.296875 275.84375 319.292969 275.84375 C 322.289062 275.84375 324.730469 278.285156 324.730469 281.28125 Z M 343.097656 270.117188 C 342.457031 270.53125 341.738281 270.734375 341.027344 270.734375 C 339.808594 270.734375 338.609375 270.140625 337.890625 269.046875 C 333.753906 262.773438 326.796875 259.027344 319.285156 259.019531 C 311.882812 259.019531 304.992188 262.691406 300.84375 268.835938 C 299.679688 270.558594 297.351562 271.007812 295.628906 269.851562 C 293.90625 268.691406 293.453125 266.351562 294.613281 264.632812 C 300.160156 256.40625 309.386719 251.503906 319.289062 251.503906 C 329.332031 251.511719 338.632812 256.519531 344.164062 264.90625 C 345.308594 266.636719 344.828125 268.96875 343.097656 270.117188 Z M 353.933594 335.472656 C 353.933594 338.339844 351.601562 340.664062 348.742188 340.664062 L 321.882812 340.664062 C 323.886719 339.71875 325.28125 337.699219 325.28125 335.34375 C 325.28125 332.089844 322.628906 329.441406 319.371094 329.441406 C 316.121094 329.441406 313.476562 332.089844 313.476562 335.34375 C 313.476562 337.699219 314.871094 339.71875 316.867188 340.664062 L 289.996094 340.664062 C 287.136719 340.664062 284.8125 338.339844 284.8125 335.472656 L 284.8125 329.441406 L 353.933594 329.441406 Z M 353.933594 218.515625 L 284.808594 218.515625 L 284.808594 212.488281 C 284.808594 209.621094 287.132812 207.289062 289.992188 207.289062 L 348.742188 207.289062 C 351.601562 207.289062 353.933594 209.621094 353.933594 212.488281 Z M 353.933594 218.515625 " fill-opacity="1" fill-rule="nonzero"/></g><path fill="#ff3131" d="M 323.847656 209.988281 L 314.890625 209.988281 C 312.816406 209.988281 311.132812 211.667969 311.132812 213.746094 C 311.132812 215.824219 312.816406 217.503906 314.890625 217.503906 L 323.847656 217.503906 C 325.921875 217.503906 327.605469 215.824219 327.605469 213.746094 C 327.605469 211.667969 325.921875 209.988281 323.847656 209.988281 Z M 323.847656 209.988281 " fill-opacity="1" fill-rule="nonzero"/><path fill="#ff3131" d="M 201.0625 310.671875 L 227.839844 310.671875 C 229.917969 310.671875 231.601562 308.992188 231.601562 306.914062 L 231.601562 282.949219 C 231.601562 280.871094 229.917969 279.191406 227.839844 279.191406 C 225.765625 279.191406 224.082031 280.871094 224.082031 282.949219 L 224.082031 303.152344 L 201.0625 303.152344 C 198.984375 303.152344 197.300781 304.835938 197.300781 306.914062 C 197.300781 308.992188 198.984375 310.671875 201.0625 310.671875 Z M 201.0625 310.671875 " fill-opacity="1" fill-rule="nonzero"/></svg>