<svg xmlns="http://www.w3.org/2000/svg" xmlns:xlink="http://www.w3.org/1999/xlink" width="500" zoomAndPan="magnify" viewBox="0 0 375 374.999991" height="500" preserveAspectRatio="xMidYMid meet" version="1.0"><defs><g/><clipPath id="cb9eef6417"><path d="M 81 9 L 297.671875 9 L 297.671875 252 L 81 252 Z M 81 9 " clip-rule="nonzero"/></clipPath><clipPath id="1e84a37ffe"><path d="M 97.417969 71.53125 L 281.167969 71.53125 L 281.167969 188.53125 L 97.417969 188.53125 Z M 97.417969 71.53125 " clip-rule="nonzero"/></clipPath></defs><g clip-path="url(#cb9eef6417)"><path fill="#fa3a3a" d="M 297.550781 82.613281 L 297.550781 177.816406 C 297.546875 178.941406 297.472656 180.058594 297.328125 181.171875 C 297.179688 182.285156 296.960938 183.382812 296.667969 184.46875 C 296.378906 185.554688 296.019531 186.617188 295.589844 187.652344 C 295.164062 188.691406 294.667969 189.699219 294.109375 190.671875 C 293.550781 191.644531 292.929688 192.578125 292.246094 193.472656 C 291.566406 194.363281 290.832031 195.207031 290.039062 196.003906 C 289.246094 196.800781 288.40625 197.542969 287.519531 198.230469 C 286.632812 198.921875 285.703125 199.546875 284.734375 200.113281 L 202.304688 247.691406 C 201.328125 248.253906 200.316406 248.75 199.273438 249.179688 C 198.230469 249.609375 197.164062 249.96875 196.074219 250.261719 C 194.984375 250.550781 193.882812 250.769531 192.765625 250.917969 C 191.644531 251.066406 190.523438 251.136719 189.394531 251.136719 C 188.265625 251.136719 187.144531 251.066406 186.027344 250.917969 C 184.90625 250.769531 183.804688 250.550781 182.714844 250.261719 C 181.625 249.96875 180.558594 249.609375 179.515625 249.179688 C 178.472656 248.75 177.464844 248.253906 176.488281 247.691406 L 94.097656 200.113281 C 93.121094 199.554688 92.183594 198.929688 91.289062 198.25 C 90.390625 197.566406 89.546875 196.824219 88.746094 196.03125 C 87.949219 195.238281 87.203125 194.394531 86.515625 193.5 C 85.828125 192.609375 85.203125 191.675781 84.636719 190.703125 C 84.070312 189.726562 83.570312 188.71875 83.136719 187.679688 C 82.703125 186.640625 82.339844 185.578125 82.046875 184.488281 C 81.753906 183.402344 81.53125 182.300781 81.382812 181.183594 C 81.234375 180.066406 81.160156 178.945312 81.15625 177.816406 L 81.15625 82.613281 C 81.160156 81.484375 81.234375 80.363281 81.382812 79.246094 C 81.53125 78.128906 81.75 77.027344 82.042969 75.9375 C 82.335938 74.851562 82.699219 73.785156 83.132812 72.746094 C 83.566406 71.703125 84.066406 70.695312 84.632812 69.722656 C 85.199219 68.746094 85.824219 67.8125 86.511719 66.921875 C 87.199219 66.027344 87.945312 65.183594 88.742188 64.390625 C 89.542969 63.59375 90.390625 62.855469 91.285156 62.171875 C 92.183594 61.488281 93.121094 60.867188 94.097656 60.308594 L 176.515625 12.6875 C 177.496094 12.128906 178.507812 11.636719 179.550781 11.207031 C 180.59375 10.78125 181.660156 10.421875 182.746094 10.132812 C 183.835938 9.84375 184.941406 9.625 186.058594 9.480469 C 187.175781 9.332031 188.300781 9.261719 189.425781 9.261719 C 190.554688 9.261719 191.675781 9.332031 192.792969 9.480469 C 193.910156 9.625 195.015625 9.84375 196.105469 10.132812 C 197.195312 10.421875 198.261719 10.78125 199.300781 11.207031 C 200.34375 11.636719 201.355469 12.128906 202.335938 12.6875 L 284.765625 60.328125 C 285.734375 60.894531 286.660156 61.519531 287.546875 62.207031 C 288.433594 62.894531 289.273438 63.636719 290.0625 64.433594 C 290.855469 65.230469 291.589844 66.074219 292.269531 66.96875 C 292.949219 67.859375 293.566406 68.792969 294.125 69.765625 C 294.683594 70.742188 295.175781 71.746094 295.605469 72.785156 C 296.03125 73.820312 296.390625 74.882812 296.679688 75.964844 C 296.96875 77.050781 297.1875 78.148438 297.332031 79.261719 C 297.476562 80.375 297.550781 81.492188 297.550781 82.613281 Z M 297.550781 82.613281 " fill-opacity="1" fill-rule="nonzero"/></g><path fill="#ffffff" d="M 122.101562 163.265625 L 127.84375 166.460938 L 123.230469 153.167969 C 124.367188 152.714844 125.167969 151.609375 125.167969 150.316406 C 125.167969 149.324219 124.695312 148.445312 123.964844 147.886719 L 123.964844 123.683594 L 120.242188 123.683594 L 120.242188 147.886719 C 119.511719 148.445312 119.035156 149.324219 119.035156 150.316406 C 119.035156 151.609375 119.839844 152.714844 120.972656 153.167969 L 116.363281 166.460938 L 122.101562 163.265625 " fill-opacity="1" fill-rule="nonzero"/><g clip-path="url(#1e84a37ffe)"><path fill="#ffffff" d="M 129.054688 147.382812 L 129.054688 161.238281 L 189.351562 188.859375 L 249.652344 161.238281 L 249.652344 147.382812 L 189.351562 175.003906 Z M 129.054688 130.792969 L 129.054688 144.648438 L 189.351562 172.261719 L 249.652344 144.648438 L 249.652344 130.792969 L 189.351562 158.410156 Z M 151.191406 127.078125 C 151.191406 128.214844 150.269531 129.136719 149.132812 129.136719 L 131.320312 129.136719 L 189.351562 155.714844 L 281.261719 113.621094 L 189.351562 71.523438 L 97.441406 113.621094 L 122.335938 125.019531 L 149.132812 125.019531 C 150.269531 125.019531 151.191406 125.941406 151.191406 127.078125 " fill-opacity="1" fill-rule="nonzero"/></g><g fill="#000000" fill-opacity="1"><g transform="translate(18.581241, 320.004283)"><g><path d="M 30.3125 -26.3125 C 33.632812 -25.476562 36.148438 -24.007812 37.859375 -21.90625 C 39.566406 -19.800781 40.421875 -17.332031 40.421875 -14.5 C 40.421875 -11.832031 39.703125 -9.394531 38.265625 -7.1875 C 36.828125 -4.976562 34.703125 -3.226562 31.890625 -1.9375 C 29.085938 -0.644531 25.601562 0 21.4375 0 L 5.1875 0 C 3.851562 0 2.90625 -0.144531 2.34375 -0.4375 C 1.78125 -0.726562 1.5 -1.25 1.5 -2 C 1.5 -2.75 1.675781 -3.3125 2.03125 -3.6875 C 2.382812 -4.0625 2.8125 -4.414062 3.3125 -4.75 C 3.8125 -5.082031 4.28125 -5.53125 4.71875 -6.09375 C 5.15625 -6.65625 5.457031 -7.457031 5.625 -8.5 C 5.707031 -8.957031 5.757812 -9.40625 5.78125 -9.84375 C 5.800781 -10.28125 5.8125 -10.875 5.8125 -11.625 L 5.8125 -32.109375 C 5.8125 -32.859375 5.800781 -33.460938 5.78125 -33.921875 C 5.757812 -34.378906 5.707031 -34.816406 5.625 -35.234375 C 5.457031 -36.316406 5.15625 -37.128906 4.71875 -37.671875 C 4.28125 -38.210938 3.8125 -38.648438 3.3125 -38.984375 C 2.8125 -39.316406 2.382812 -39.671875 2.03125 -40.046875 C 1.675781 -40.421875 1.5 -40.984375 1.5 -41.734375 C 1.5 -42.484375 1.78125 -43.003906 2.34375 -43.296875 C 2.90625 -43.585938 3.851562 -43.734375 5.1875 -43.734375 L 19.25 -43.734375 C 22.332031 -43.734375 25.097656 -43.453125 27.546875 -42.890625 C 30.003906 -42.328125 31.972656 -41.359375 33.453125 -39.984375 C 34.929688 -38.609375 35.691406 -36.710938 35.734375 -34.296875 C 35.773438 -32.460938 35.316406 -30.859375 34.359375 -29.484375 C 33.398438 -28.117188 32.050781 -27.0625 30.3125 -26.3125 Z M 16.125 -37.484375 L 16.125 -29.375 C 16.125 -28.582031 16.476562 -28.144531 17.1875 -28.0625 C 17.894531 -27.976562 18.5625 -27.9375 19.1875 -27.9375 C 21.269531 -27.9375 22.875 -28.34375 24 -29.15625 C 25.125 -29.96875 25.6875 -31.203125 25.6875 -32.859375 C 25.6875 -34.566406 25.03125 -36.054688 23.71875 -37.328125 C 22.40625 -38.597656 20.582031 -39.234375 18.25 -39.234375 C 17.664062 -39.234375 17.164062 -39.097656 16.75 -38.828125 C 16.332031 -38.554688 16.125 -38.109375 16.125 -37.484375 Z M 21.3125 -4.5 C 24.019531 -4.5 26.019531 -5.164062 27.3125 -6.5 C 28.601562 -7.832031 29.25 -9.832031 29.25 -12.5 C 29.25 -14.414062 28.832031 -16.1875 28 -17.8125 C 27.164062 -19.4375 25.9375 -20.738281 24.3125 -21.71875 C 22.6875 -22.695312 20.6875 -23.1875 18.3125 -23.1875 C 17.519531 -23.1875 16.957031 -23.0625 16.625 -22.8125 C 16.289062 -22.5625 16.125 -22.082031 16.125 -21.375 L 16.125 -8.875 C 16.125 -7.332031 16.445312 -6.21875 17.09375 -5.53125 C 17.738281 -4.84375 19.144531 -4.5 21.3125 -4.5 Z M 21.3125 -4.5 "/></g></g></g><g fill="#000000" fill-opacity="1"><g transform="translate(63.307348, 320.004283)"><g><path d="M 35.734375 -14.125 C 36.484375 -13.957031 36.941406 -13.613281 37.109375 -13.09375 C 37.273438 -12.570312 37.335938 -11.832031 37.296875 -10.875 C 37.253906 -9.039062 37.140625 -7.46875 36.953125 -6.15625 C 36.765625 -4.84375 36.546875 -3.726562 36.296875 -2.8125 C 36.003906 -1.8125 35.503906 -1.09375 34.796875 -0.65625 C 34.085938 -0.21875 32.820312 0 31 0 L 5.1875 0 C 3.851562 0 2.90625 -0.144531 2.34375 -0.4375 C 1.78125 -0.726562 1.5 -1.25 1.5 -2 C 1.5 -2.75 1.675781 -3.3125 2.03125 -3.6875 C 2.382812 -4.0625 2.8125 -4.414062 3.3125 -4.75 C 3.8125 -5.082031 4.28125 -5.53125 4.71875 -6.09375 C 5.15625 -6.65625 5.457031 -7.457031 5.625 -8.5 C 5.707031 -8.957031 5.757812 -9.40625 5.78125 -9.84375 C 5.800781 -10.28125 5.8125 -10.875 5.8125 -11.625 L 5.8125 -32.109375 C 5.8125 -32.859375 5.800781 -33.460938 5.78125 -33.921875 C 5.757812 -34.378906 5.707031 -34.816406 5.625 -35.234375 C 5.457031 -36.316406 5.15625 -37.128906 4.71875 -37.671875 C 4.28125 -38.210938 3.8125 -38.648438 3.3125 -38.984375 C 2.8125 -39.316406 2.382812 -39.671875 2.03125 -40.046875 C 1.675781 -40.421875 1.5 -40.984375 1.5 -41.734375 C 1.5 -42.484375 1.78125 -43.003906 2.34375 -43.296875 C 2.90625 -43.585938 3.851562 -43.734375 5.1875 -43.734375 L 29.5 -43.734375 C 31.320312 -43.734375 32.617188 -43.523438 33.390625 -43.109375 C 34.160156 -42.691406 34.691406 -42.128906 34.984375 -41.421875 C 35.816406 -39.671875 36.484375 -37.546875 36.984375 -35.046875 C 37.191406 -34.128906 37.222656 -33.378906 37.078125 -32.796875 C 36.929688 -32.210938 36.566406 -31.816406 35.984375 -31.609375 C 34.859375 -31.234375 33.796875 -31.796875 32.796875 -33.296875 C 31.515625 -35.253906 30.15625 -36.734375 28.71875 -37.734375 C 27.28125 -38.734375 25.582031 -39.234375 23.625 -39.234375 L 20.9375 -39.234375 C 18.976562 -39.234375 17.6875 -39.003906 17.0625 -38.546875 C 16.4375 -38.085938 16.125 -37.359375 16.125 -36.359375 L 16.125 -28.5625 C 16.125 -27.3125 16.46875 -26.488281 17.15625 -26.09375 C 17.84375 -25.695312 18.851562 -25.5 20.1875 -25.5 L 21.4375 -25.5 C 22.4375 -25.5 23.175781 -25.75 23.65625 -26.25 C 24.132812 -26.75 24.5 -27.3125 24.75 -27.9375 C 25 -28.5625 25.28125 -29.125 25.59375 -29.625 C 25.90625 -30.125 26.394531 -30.375 27.0625 -30.375 C 27.769531 -30.375 28.28125 -30.132812 28.59375 -29.65625 C 28.90625 -29.175781 29.0625 -28.351562 29.0625 -27.1875 L 29.0625 -19.125 C 29.0625 -17.082031 28.394531 -16.0625 27.0625 -16.0625 C 26.394531 -16.0625 25.90625 -16.3125 25.59375 -16.8125 C 25.28125 -17.3125 25 -17.882812 24.75 -18.53125 C 24.5 -19.175781 24.132812 -19.75 23.65625 -20.25 C 23.175781 -20.75 22.4375 -21 21.4375 -21 L 20.1875 -21 C 18.851562 -21 17.84375 -20.8125 17.15625 -20.4375 C 16.46875 -20.0625 16.125 -19.226562 16.125 -17.9375 L 16.125 -7.375 C 16.125 -6.375 16.457031 -5.644531 17.125 -5.1875 C 17.789062 -4.726562 19.226562 -4.5 21.4375 -4.5 L 25.3125 -4.5625 C 26.601562 -4.5625 27.65625 -4.84375 28.46875 -5.40625 C 29.28125 -5.96875 30.003906 -6.789062 30.640625 -7.875 C 31.285156 -8.957031 31.984375 -10.25 32.734375 -11.75 C 33.273438 -12.832031 33.773438 -13.53125 34.234375 -13.84375 C 34.691406 -14.15625 35.191406 -14.25 35.734375 -14.125 Z M 35.734375 -14.125 "/></g></g></g><g fill="#000000" fill-opacity="1"><g transform="translate(105.659758, 320.004283)"><g/></g></g><g fill="#000000" fill-opacity="1"><g transform="translate(121.089495, 320.004283)"><g><path d="M 19.75 0.5625 C 17.457031 0.5625 15.539062 0.34375 14 -0.09375 C 12.457031 -0.53125 11.289062 -0.75 10.5 -0.75 C 9.832031 -0.75 9.3125 -0.632812 8.9375 -0.40625 C 8.5625 -0.175781 8.238281 0.0507812 7.96875 0.28125 C 7.695312 0.507812 7.332031 0.625 6.875 0.625 C 6.332031 0.625 5.84375 0.394531 5.40625 -0.0625 C 4.96875 -0.519531 4.644531 -1.414062 4.4375 -2.75 C 4.144531 -4.5 3.90625 -6.132812 3.71875 -7.65625 C 3.53125 -9.175781 3.394531 -10.644531 3.3125 -12.0625 C 3.269531 -13.019531 3.363281 -13.769531 3.59375 -14.3125 C 3.820312 -14.851562 4.25 -15.125 4.875 -15.125 C 5.5 -15.125 5.988281 -14.90625 6.34375 -14.46875 C 6.695312 -14.03125 7.207031 -13.269531 7.875 -12.1875 C 8.5 -11.144531 9.34375 -9.988281 10.40625 -8.71875 C 11.46875 -7.445312 12.832031 -6.351562 14.5 -5.4375 C 16.164062 -4.519531 18.164062 -4.0625 20.5 -4.0625 C 22.457031 -4.019531 23.851562 -4.519531 24.6875 -5.5625 C 25.519531 -6.601562 25.957031 -7.726562 26 -8.9375 C 26 -10.226562 25.507812 -11.382812 24.53125 -12.40625 C 23.550781 -13.425781 22.289062 -14.382812 20.75 -15.28125 C 19.207031 -16.175781 17.582031 -17.0625 15.875 -17.9375 C 13.5 -19.1875 11.414062 -20.363281 9.625 -21.46875 C 7.832031 -22.570312 6.425781 -23.882812 5.40625 -25.40625 C 4.382812 -26.925781 3.875 -28.890625 3.875 -31.296875 C 3.875 -33.753906 4.582031 -35.960938 6 -37.921875 C 7.414062 -39.878906 9.34375 -41.429688 11.78125 -42.578125 C 14.21875 -43.722656 16.9375 -44.296875 19.9375 -44.296875 C 21.519531 -44.296875 22.957031 -44.140625 24.25 -43.828125 C 25.539062 -43.515625 26.519531 -43.359375 27.1875 -43.359375 C 28.019531 -43.359375 28.613281 -43.515625 28.96875 -43.828125 C 29.320312 -44.140625 29.832031 -44.296875 30.5 -44.296875 C 31.070312 -44.296875 31.566406 -44.085938 31.984375 -43.671875 C 32.398438 -43.253906 32.753906 -42.378906 33.046875 -41.046875 C 33.296875 -39.835938 33.523438 -38.578125 33.734375 -37.265625 C 33.941406 -35.953125 34.066406 -34.628906 34.109375 -33.296875 C 34.191406 -32.335938 34.085938 -31.578125 33.796875 -31.015625 C 33.503906 -30.460938 33.003906 -30.1875 32.296875 -30.1875 C 31.753906 -30.1875 31.265625 -30.421875 30.828125 -30.890625 C 30.398438 -31.367188 29.832031 -32.109375 29.125 -33.109375 C 28.414062 -34.109375 27.582031 -35.140625 26.625 -36.203125 C 25.664062 -37.265625 24.570312 -38.148438 23.34375 -38.859375 C 22.113281 -39.566406 20.75 -39.921875 19.25 -39.921875 C 17.5 -39.921875 16.15625 -39.472656 15.21875 -38.578125 C 14.28125 -37.679688 13.8125 -36.523438 13.8125 -35.109375 C 13.8125 -33.316406 14.613281 -31.785156 16.21875 -30.515625 C 17.820312 -29.253906 20.3125 -27.75 23.6875 -26 C 26.1875 -24.75 28.398438 -23.550781 30.328125 -22.40625 C 32.265625 -21.257812 33.785156 -19.957031 34.890625 -18.5 C 35.992188 -17.039062 36.546875 -15.164062 36.546875 -12.875 C 36.546875 -10.75 36.085938 -8.851562 35.171875 -7.1875 C 34.253906 -5.519531 32.992188 -4.113281 31.390625 -2.96875 C 29.796875 -1.820312 27.988281 -0.945312 25.96875 -0.34375 C 23.945312 0.257812 21.875 0.5625 19.75 0.5625 Z M 19.75 0.5625 "/></g></g></g><g fill="#000000" fill-opacity="1"><g transform="translate(163.566831, 320.004283)"><g><path d="M 50.171875 -35.046875 L 51.046875 -9.875 C 51.128906 -8.375 51.398438 -7.289062 51.859375 -6.625 C 52.316406 -5.957031 52.828125 -5.457031 53.390625 -5.125 C 53.953125 -4.789062 54.453125 -4.425781 54.890625 -4.03125 C 55.328125 -3.632812 55.546875 -2.957031 55.546875 -2 C 55.546875 -1.25 55.285156 -0.726562 54.765625 -0.4375 C 54.242188 -0.144531 53.296875 0 51.921875 0 L 40.921875 0 C 39.628906 0 38.703125 -0.144531 38.140625 -0.4375 C 37.578125 -0.726562 37.296875 -1.25 37.296875 -2 C 37.296875 -2.875 37.484375 -3.519531 37.859375 -3.9375 C 38.234375 -4.351562 38.660156 -4.75 39.140625 -5.125 C 39.617188 -5.5 40.035156 -6.03125 40.390625 -6.71875 C 40.742188 -7.40625 40.921875 -8.457031 40.921875 -9.875 L 40.546875 -31.234375 L 28.125 -4.5 C 27.832031 -3.914062 27.507812 -3.476562 27.15625 -3.1875 C 26.800781 -2.894531 26.269531 -2.664062 25.5625 -2.5 C 24.851562 -2.332031 24.289062 -2.375 23.875 -2.625 C 23.457031 -2.875 23.144531 -3.226562 22.9375 -3.6875 L 11.4375 -30.875 L 10.75 -8 C 10.707031 -7 10.84375 -6.21875 11.15625 -5.65625 C 11.46875 -5.09375 11.832031 -4.632812 12.25 -4.28125 C 12.664062 -3.925781 13.039062 -3.570312 13.375 -3.21875 C 13.707031 -2.863281 13.875 -2.394531 13.875 -1.8125 C 13.875 -1.101562 13.632812 -0.632812 13.15625 -0.40625 C 12.675781 -0.175781 11.957031 -0.0625 11 -0.0625 L 4.8125 -0.0625 C 3.644531 -0.0625 2.84375 -0.195312 2.40625 -0.46875 C 1.96875 -0.738281 1.75 -1.207031 1.75 -1.875 C 1.75 -2.375 1.925781 -2.800781 2.28125 -3.15625 C 2.632812 -3.507812 3.050781 -3.875 3.53125 -4.25 C 4.007812 -4.625 4.445312 -5.09375 4.84375 -5.65625 C 5.238281 -6.21875 5.457031 -7 5.5 -8 L 6.8125 -35.046875 C 6.851562 -36.171875 6.6875 -37.023438 6.3125 -37.609375 C 5.9375 -38.191406 5.5 -38.648438 5 -38.984375 C 4.5 -39.316406 4.050781 -39.671875 3.65625 -40.046875 C 3.257812 -40.421875 3.0625 -40.984375 3.0625 -41.734375 C 3.0625 -42.484375 3.3125 -43.003906 3.8125 -43.296875 C 4.3125 -43.585938 5.144531 -43.734375 6.3125 -43.734375 L 14.6875 -43.734375 C 15.976562 -43.734375 16.894531 -43.148438 17.4375 -41.984375 L 28.25 -17 L 39.921875 -41.921875 C 40.546875 -43.128906 41.460938 -43.734375 42.671875 -43.734375 L 50.609375 -43.734375 C 51.773438 -43.734375 52.617188 -43.585938 53.140625 -43.296875 C 53.660156 -43.003906 53.921875 -42.484375 53.921875 -41.734375 C 53.921875 -40.984375 53.722656 -40.421875 53.328125 -40.046875 C 52.929688 -39.671875 52.484375 -39.316406 51.984375 -38.984375 C 51.484375 -38.648438 51.046875 -38.191406 50.671875 -37.609375 C 50.296875 -37.023438 50.128906 -36.171875 50.171875 -35.046875 Z M 50.171875 -35.046875 "/></g></g></g><g fill="#000000" fill-opacity="1"><g transform="translate(223.472075, 320.004283)"><g><path d="M 12 -10.375 L 11.125 -8.25 C 10.625 -7.082031 10.425781 -6.195312 10.53125 -5.59375 C 10.632812 -4.988281 10.863281 -4.53125 11.21875 -4.21875 C 11.570312 -3.90625 11.914062 -3.59375 12.25 -3.28125 C 12.582031 -2.96875 12.75 -2.5 12.75 -1.875 C 12.75 -1.125 12.445312 -0.632812 11.84375 -0.40625 C 11.238281 -0.175781 10.5 -0.0625 9.625 -0.0625 L 3.75 -0.0625 C 2.664062 -0.0625 1.800781 -0.1875 1.15625 -0.4375 C 0.507812 -0.6875 0.1875 -1.164062 0.1875 -1.875 C 0.1875 -2.5 0.375 -2.976562 0.75 -3.3125 C 1.125 -3.644531 1.601562 -3.988281 2.1875 -4.34375 C 2.769531 -4.695312 3.363281 -5.164062 3.96875 -5.75 C 4.570312 -6.332031 5.082031 -7.164062 5.5 -8.25 L 16.4375 -35.234375 C 16.851562 -36.316406 16.988281 -37.148438 16.84375 -37.734375 C 16.695312 -38.316406 16.425781 -38.796875 16.03125 -39.171875 C 15.632812 -39.546875 15.257812 -39.929688 14.90625 -40.328125 C 14.550781 -40.722656 14.375 -41.234375 14.375 -41.859375 C 14.375 -42.523438 14.570312 -43.003906 14.96875 -43.296875 C 15.363281 -43.585938 15.875 -43.734375 16.5 -43.734375 L 24.25 -43.734375 C 25.5 -43.734375 26.394531 -43.128906 26.9375 -41.921875 L 40.109375 -8.625 C 40.648438 -7.332031 41.191406 -6.375 41.734375 -5.75 C 42.273438 -5.125 42.773438 -4.65625 43.234375 -4.34375 C 43.691406 -4.03125 44.054688 -3.71875 44.328125 -3.40625 C 44.597656 -3.09375 44.734375 -2.625 44.734375 -2 C 44.734375 -1.25 44.484375 -0.726562 43.984375 -0.4375 C 43.484375 -0.144531 42.585938 0 41.296875 0 L 29.875 0 C 28.75 0 27.925781 -0.144531 27.40625 -0.4375 C 26.882812 -0.726562 26.625 -1.25 26.625 -2 C 26.625 -2.664062 26.832031 -3.15625 27.25 -3.46875 C 27.664062 -3.78125 28.101562 -4.101562 28.5625 -4.4375 C 29.019531 -4.769531 29.332031 -5.238281 29.5 -5.84375 C 29.664062 -6.445312 29.5 -7.375 29 -8.625 L 28.4375 -10.0625 C 28.226562 -10.5625 28.019531 -10.945312 27.8125 -11.21875 C 27.601562 -11.488281 27.257812 -11.6875 26.78125 -11.8125 C 26.300781 -11.9375 25.539062 -12.007812 24.5 -12.03125 C 23.457031 -12.050781 22 -12.0625 20.125 -12.0625 C 18.25 -12.0625 16.800781 -12.050781 15.78125 -12.03125 C 14.757812 -12.007812 14.007812 -11.945312 13.53125 -11.84375 C 13.050781 -11.738281 12.71875 -11.570312 12.53125 -11.34375 C 12.34375 -11.113281 12.164062 -10.789062 12 -10.375 Z M 20.1875 -16.625 C 22.0625 -16.625 23.382812 -16.644531 24.15625 -16.6875 C 24.925781 -16.726562 25.34375 -16.875 25.40625 -17.125 C 25.46875 -17.375 25.394531 -17.769531 25.1875 -18.3125 L 20.25 -31.046875 L 15.3125 -18.6875 C 15.0625 -18.019531 14.957031 -17.539062 15 -17.25 C 15.039062 -16.957031 15.445312 -16.78125 16.21875 -16.71875 C 16.988281 -16.65625 18.3125 -16.625 20.1875 -16.625 Z M 20.1875 -16.625 "/></g></g></g><g fill="#000000" fill-opacity="1"><g transform="translate(272.071046, 320.004283)"><g><path d="M 33.421875 -15.9375 L 37.734375 -8.5625 C 38.359375 -7.4375 38.992188 -6.601562 39.640625 -6.0625 C 40.285156 -5.519531 40.859375 -5.09375 41.359375 -4.78125 C 41.859375 -4.46875 42.265625 -4.113281 42.578125 -3.71875 C 42.890625 -3.320312 43.046875 -2.75 43.046875 -2 C 43.046875 -1.25 42.785156 -0.726562 42.265625 -0.4375 C 41.742188 -0.144531 40.816406 0 39.484375 0 L 29.0625 0 C 28.0625 0 27.3125 -0.144531 26.8125 -0.4375 C 26.3125 -0.726562 26.0625 -1.25 26.0625 -2 C 26.0625 -2.625 26.21875 -3.15625 26.53125 -3.59375 C 26.84375 -4.03125 27.15625 -4.476562 27.46875 -4.9375 C 27.78125 -5.394531 27.957031 -5.925781 28 -6.53125 C 28.039062 -7.132812 27.789062 -7.914062 27.25 -8.875 L 24.3125 -13.9375 C 23.894531 -13.894531 23.476562 -13.875 23.0625 -13.875 C 22.644531 -13.875 22.207031 -13.875 21.75 -13.875 L 17.375 -13.875 C 16.539062 -13.875 16.125 -13.457031 16.125 -12.625 L 16.125 -11.125 C 16.125 -9.207031 16.332031 -7.800781 16.75 -6.90625 C 17.164062 -6.007812 17.65625 -5.363281 18.21875 -4.96875 C 18.78125 -4.570312 19.269531 -4.1875 19.6875 -3.8125 C 20.101562 -3.4375 20.3125 -2.832031 20.3125 -2 C 20.3125 -1.25 20.050781 -0.726562 19.53125 -0.4375 C 19.007812 -0.144531 18.039062 0 16.625 0 L 5.1875 0 C 3.851562 0 2.90625 -0.144531 2.34375 -0.4375 C 1.78125 -0.726562 1.5 -1.25 1.5 -2 C 1.5 -2.664062 1.644531 -3.175781 1.9375 -3.53125 C 2.226562 -3.882812 2.582031 -4.195312 3 -4.46875 C 3.414062 -4.738281 3.84375 -5.101562 4.28125 -5.5625 C 4.71875 -6.019531 5.082031 -6.675781 5.375 -7.53125 C 5.664062 -8.382812 5.8125 -9.582031 5.8125 -11.125 L 5.8125 -32.109375 C 5.8125 -32.859375 5.800781 -33.460938 5.78125 -33.921875 C 5.757812 -34.378906 5.707031 -34.816406 5.625 -35.234375 C 5.457031 -36.316406 5.15625 -37.128906 4.71875 -37.671875 C 4.28125 -38.210938 3.8125 -38.648438 3.3125 -38.984375 C 2.8125 -39.316406 2.382812 -39.671875 2.03125 -40.046875 C 1.675781 -40.421875 1.5 -40.984375 1.5 -41.734375 C 1.5 -42.484375 1.78125 -43.003906 2.34375 -43.296875 C 2.90625 -43.585938 3.851562 -43.734375 5.1875 -43.734375 L 19.875 -43.734375 C 24.289062 -43.734375 28.023438 -43.054688 31.078125 -41.703125 C 34.140625 -40.347656 36.460938 -38.484375 38.046875 -36.109375 C 39.628906 -33.734375 40.421875 -30.96875 40.421875 -27.8125 C 40.421875 -22.0625 38.085938 -18.101562 33.421875 -15.9375 Z M 21.1875 -18.1875 C 24.144531 -18.1875 26.351562 -18.976562 27.8125 -20.5625 C 29.269531 -22.144531 30 -24.269531 30 -26.9375 C 30 -29.601562 29.519531 -31.867188 28.5625 -33.734375 C 27.601562 -35.609375 26.332031 -37.046875 24.75 -38.046875 C 23.164062 -39.046875 21.414062 -39.546875 19.5 -39.546875 C 18.039062 -39.546875 17.113281 -39.429688 16.71875 -39.203125 C 16.320312 -38.972656 16.125 -38.523438 16.125 -37.859375 L 16.125 -20.3125 C 16.125 -19.519531 16.519531 -18.96875 17.3125 -18.65625 C 18.101562 -18.34375 19.394531 -18.1875 21.1875 -18.1875 Z M 21.1875 -18.1875 "/></g></g></g><g fill="#000000" fill-opacity="1"><g transform="translate(319.233301, 320.004283)"><g><path d="M 25.625 -36.296875 L 25.625 -11.125 C 25.625 -9.207031 25.832031 -7.800781 26.25 -6.90625 C 26.664062 -6.007812 27.15625 -5.363281 27.71875 -4.96875 C 28.28125 -4.570312 28.769531 -4.1875 29.1875 -3.8125 C 29.601562 -3.4375 29.8125 -2.832031 29.8125 -2 C 29.8125 -1.25 29.550781 -0.726562 29.03125 -0.4375 C 28.507812 -0.144531 27.539062 0 26.125 0 L 14.6875 0 C 13.351562 0 12.40625 -0.144531 11.84375 -0.4375 C 11.28125 -0.726562 11 -1.25 11 -2 C 11 -2.664062 11.144531 -3.175781 11.4375 -3.53125 C 11.726562 -3.882812 12.09375 -4.195312 12.53125 -4.46875 C 12.96875 -4.738281 13.394531 -5.101562 13.8125 -5.5625 C 14.226562 -6.019531 14.582031 -6.675781 14.875 -7.53125 C 15.164062 -8.382812 15.3125 -9.582031 15.3125 -11.125 L 15.3125 -36.296875 C 15.3125 -38.003906 14.457031 -38.859375 12.75 -38.859375 C 11.5 -38.859375 10.46875 -38.609375 9.65625 -38.109375 C 8.84375 -37.609375 8.125 -36.847656 7.5 -35.828125 C 6.875 -34.804688 6.164062 -33.546875 5.375 -32.046875 C 5.039062 -31.347656 4.6875 -30.800781 4.3125 -30.40625 C 3.9375 -30.007812 3.5 -29.8125 3 -29.8125 C 2.332031 -29.8125 1.875 -30.078125 1.625 -30.609375 C 1.375 -31.148438 1.269531 -31.898438 1.3125 -32.859375 C 1.394531 -34.691406 1.519531 -36.265625 1.6875 -37.578125 C 1.851562 -38.890625 2.0625 -40.003906 2.3125 -40.921875 C 2.601562 -41.921875 3.101562 -42.640625 3.8125 -43.078125 C 4.519531 -43.515625 5.789062 -43.734375 7.625 -43.734375 L 33.234375 -43.734375 C 35.109375 -43.734375 36.398438 -43.515625 37.109375 -43.078125 C 37.816406 -42.640625 38.296875 -41.921875 38.546875 -40.921875 C 38.796875 -40.003906 39.015625 -38.890625 39.203125 -37.578125 C 39.390625 -36.265625 39.503906 -34.691406 39.546875 -32.859375 C 39.585938 -31.941406 39.492188 -31.203125 39.265625 -30.640625 C 39.035156 -30.085938 38.566406 -29.8125 37.859375 -29.8125 C 37.359375 -29.8125 36.929688 -30.007812 36.578125 -30.40625 C 36.222656 -30.800781 35.859375 -31.347656 35.484375 -32.046875 C 34.359375 -34.296875 33.316406 -36.003906 32.359375 -37.171875 C 31.410156 -38.335938 30 -38.921875 28.125 -38.921875 C 26.457031 -38.921875 25.625 -38.046875 25.625 -36.296875 Z M 25.625 -36.296875 "/></g></g></g></svg>