<svg xmlns="http://www.w3.org/2000/svg" xmlns:xlink="http://www.w3.org/1999/xlink" width="500" zoomAndPan="magnify" viewBox="0 0 375 374.999991" height="500" preserveAspectRatio="xMidYMid meet" version="1.0"><defs><clipPath id="5c032f0181"><path d="M 21.75 175 L 32 175 L 32 234 L 21.75 234 Z M 21.75 175 " clip-rule="nonzero"/></clipPath><clipPath id="81712575d0"><path d="M 31 269 L 92 269 L 92 366.402344 L 31 366.402344 Z M 31 269 " clip-rule="nonzero"/></clipPath><clipPath id="7e46f23ecf"><path d="M 138 269 L 198 269 L 198 366.402344 L 138 366.402344 Z M 138 269 " clip-rule="nonzero"/></clipPath></defs><path fill="#251487" d="M 307.296875 87.5 C 306.808594 87.5 306.320312 87.285156 305.992188 86.871094 C 302.105469 82.003906 297.890625 77.3125 293.460938 72.9375 C 292.804688 72.289062 292.796875 71.230469 293.445312 70.570312 C 294.09375 69.914062 295.152344 69.910156 295.808594 70.558594 C 300.332031 75.027344 304.636719 79.8125 308.601562 84.785156 C 309.179688 85.507812 309.0625 86.558594 308.339844 87.136719 C 308.03125 87.382812 307.664062 87.5 307.296875 87.5 Z M 280.402344 60.929688 C 280.042969 60.929688 279.683594 60.816406 279.378906 60.578125 C 274.457031 56.753906 269.257812 53.183594 263.929688 49.976562 C 263.140625 49.5 262.882812 48.472656 263.359375 47.679688 C 263.835938 46.890625 264.863281 46.632812 265.652344 47.109375 C 271.097656 50.386719 276.402344 54.03125 281.429688 57.9375 C 282.15625 58.503906 282.289062 59.554688 281.722656 60.285156 C 281.394531 60.707031 280.898438 60.929688 280.402344 60.929688 Z M 248.015625 41.433594 C 247.789062 41.433594 247.554688 41.386719 247.332031 41.285156 C 241.65625 38.734375 235.761719 36.5 229.820312 34.644531 C 228.9375 34.367188 228.445312 33.429688 228.722656 32.546875 C 228.996094 31.667969 229.933594 31.175781 230.8125 31.449219 C 236.882812 33.34375 242.902344 35.628906 248.703125 38.234375 C 249.546875 38.613281 249.921875 39.605469 249.542969 40.445312 C 249.265625 41.066406 248.65625 41.433594 248.015625 41.433594 Z M 211.941406 30.167969 C 211.839844 30.167969 211.738281 30.160156 211.636719 30.140625 C 205.53125 29.007812 199.277344 28.230469 193.046875 27.820312 C 192.125 27.761719 191.425781 26.964844 191.488281 26.042969 C 191.546875 25.121094 192.339844 24.421875 193.265625 24.484375 C 199.628906 24.898438 206.011719 25.695312 212.242188 26.851562 C 213.152344 27.019531 213.75 27.890625 213.582031 28.800781 C 213.433594 29.605469 212.730469 30.167969 211.941406 30.167969 Z M 155.414062 29.816406 C 154.613281 29.816406 153.910156 29.246094 153.769531 28.429688 C 153.609375 27.523438 154.21875 26.65625 155.128906 26.496094 C 161.378906 25.40625 167.773438 24.6875 174.136719 24.351562 C 175.054688 24.304688 175.84375 25.011719 175.894531 25.9375 C 175.941406 26.859375 175.234375 27.644531 174.3125 27.695312 C 168.082031 28.019531 161.820312 28.726562 155.699219 29.792969 C 155.605469 29.808594 155.507812 29.816406 155.414062 29.816406 Z M 155.414062 29.816406 " fill-opacity="1" fill-rule="nonzero"/><g clip-path="url(#5c032f0181)"><path fill="#251487" d="M 30.265625 233.207031 C 29.546875 233.207031 28.886719 232.742188 28.667969 232.019531 C 26.886719 226.132812 25.433594 220.074219 24.339844 214.011719 C 24.175781 213.101562 24.777344 212.234375 25.6875 212.070312 C 26.59375 211.90625 27.464844 212.507812 27.628906 213.417969 C 28.699219 219.355469 30.125 225.285156 31.867188 231.050781 C 32.132812 231.933594 31.632812 232.867188 30.75 233.132812 C 30.589844 233.183594 30.425781 233.207031 30.265625 233.207031 Z M 23.761719 197.195312 C 22.890625 197.195312 22.15625 196.515625 22.097656 195.628906 C 21.867188 192.097656 21.753906 188.527344 21.753906 185.019531 C 21.753906 182.386719 21.816406 179.726562 21.945312 177.113281 C 21.992188 176.191406 22.777344 175.480469 23.699219 175.523438 C 24.621094 175.570312 25.332031 176.355469 25.285156 177.277344 C 25.160156 179.835938 25.09375 182.441406 25.09375 185.019531 C 25.09375 188.457031 25.207031 191.953125 25.433594 195.414062 C 25.492188 196.335938 24.792969 197.128906 23.875 197.191406 C 23.835938 197.191406 23.800781 197.195312 23.761719 197.195312 Z M 23.761719 197.195312 " fill-opacity="1" fill-rule="nonzero"/></g><path fill="#251487" d="M 207.539062 344.394531 C 206.730469 344.394531 206.019531 343.808594 205.890625 342.980469 C 205.75 342.070312 206.371094 341.214844 207.285156 341.070312 C 213.242188 340.140625 219.203125 338.851562 225 337.242188 C 225.890625 336.992188 226.808594 337.515625 227.058594 338.40625 C 227.304688 339.296875 226.78125 340.21875 225.894531 340.464844 C 219.972656 342.109375 213.882812 343.425781 207.800781 344.375 C 207.714844 344.390625 207.625 344.394531 207.539062 344.394531 Z M 242.78125 334.609375 C 242.125 334.609375 241.5 334.214844 241.234375 333.566406 C 240.886719 332.710938 241.296875 331.734375 242.152344 331.386719 C 247.726562 329.117188 253.230469 326.492188 258.515625 323.589844 C 259.324219 323.144531 260.339844 323.441406 260.78125 324.25 C 261.226562 325.058594 260.933594 326.078125 260.121094 326.523438 C 254.726562 329.488281 249.105469 332.167969 243.414062 334.484375 C 243.207031 334.570312 242.992188 334.609375 242.78125 334.609375 Z M 274.839844 316.996094 C 274.316406 316.996094 273.800781 316.753906 273.476562 316.292969 C 272.941406 315.539062 273.117188 314.496094 273.871094 313.960938 C 278.78125 310.472656 283.542969 306.664062 288.027344 302.636719 C 288.710938 302.019531 289.769531 302.074219 290.386719 302.761719 C 291.003906 303.449219 290.945312 304.507812 290.257812 305.125 C 285.679688 309.238281 280.816406 313.128906 275.804688 316.6875 C 275.511719 316.898438 275.175781 316.996094 274.839844 316.996094 Z M 302.046875 292.550781 C 301.652344 292.550781 301.257812 292.414062 300.9375 292.128906 C 300.25 291.519531 300.183594 290.460938 300.796875 289.769531 C 304.167969 285.960938 307.390625 281.941406 310.378906 277.828125 C 310.921875 277.082031 311.964844 276.917969 312.710938 277.460938 C 313.460938 278.003906 313.625 279.046875 313.082031 279.796875 C 310.035156 283.996094 306.742188 288.097656 303.296875 291.988281 C 302.96875 292.359375 302.507812 292.550781 302.046875 292.550781 Z M 302.046875 292.550781 " fill-opacity="1" fill-rule="nonzero"/><path fill="#bde9ff" d="M 299.703125 185.226562 C 299.703125 187.144531 299.65625 189.058594 299.5625 190.96875 C 299.46875 192.882812 299.328125 194.792969 299.140625 196.699219 C 298.953125 198.605469 298.71875 200.507812 298.4375 202.402344 C 298.15625 204.296875 297.828125 206.183594 297.457031 208.0625 C 297.082031 209.941406 296.664062 211.808594 296.195312 213.667969 C 295.730469 215.527344 295.222656 217.371094 294.667969 219.203125 C 294.109375 221.039062 293.511719 222.855469 292.867188 224.660156 C 292.21875 226.464844 291.53125 228.25 290.800781 230.019531 C 290.066406 231.789062 289.292969 233.539062 288.472656 235.273438 C 287.652344 237.003906 286.792969 238.714844 285.890625 240.402344 C 284.988281 242.09375 284.046875 243.757812 283.0625 245.402344 C 282.078125 247.046875 281.054688 248.664062 279.992188 250.257812 C 278.925781 251.847656 277.824219 253.414062 276.683594 254.953125 C 275.542969 256.492188 274.367188 258 273.152344 259.480469 C 271.9375 260.964844 270.6875 262.414062 269.402344 263.832031 C 268.117188 265.25 266.796875 266.640625 265.445312 267.992188 C 264.089844 269.347656 262.703125 270.667969 261.285156 271.953125 C 259.867188 273.242188 258.417969 274.492188 256.9375 275.707031 C 255.460938 276.921875 253.949219 278.101562 252.414062 279.242188 C 250.875 280.382812 249.3125 281.484375 247.71875 282.550781 C 246.128906 283.613281 244.511719 284.636719 242.871094 285.625 C 241.226562 286.609375 239.5625 287.550781 237.875 288.457031 C 236.1875 289.359375 234.476562 290.21875 232.746094 291.039062 C 231.015625 291.855469 229.265625 292.632812 227.496094 293.367188 C 225.730469 294.097656 223.945312 294.789062 222.140625 295.433594 C 220.339844 296.078125 218.523438 296.679688 216.691406 297.234375 C 214.859375 297.792969 213.015625 298.304688 211.15625 298.769531 C 209.300781 299.234375 207.433594 299.652344 205.554688 300.027344 C 203.679688 300.402344 201.792969 300.726562 199.898438 301.007812 C 198.007812 301.289062 196.105469 301.523438 194.203125 301.710938 C 192.296875 301.898438 190.386719 302.042969 188.476562 302.136719 C 186.5625 302.230469 184.652344 302.277344 182.738281 302.277344 C 180.824219 302.277344 178.910156 302.230469 176.996094 302.136719 C 175.085938 302.042969 173.175781 301.898438 171.273438 301.710938 C 169.367188 301.523438 167.46875 301.289062 165.574219 301.007812 C 163.679688 300.726562 161.796875 300.402344 159.917969 300.027344 C 158.039062 299.652344 156.171875 299.234375 154.316406 298.769531 C 152.460938 298.304688 150.617188 297.792969 148.785156 297.234375 C 146.953125 296.679688 145.132812 296.078125 143.332031 295.433594 C 141.53125 294.789062 139.746094 294.097656 137.976562 293.367188 C 136.207031 292.632812 134.457031 291.855469 132.726562 291.039062 C 130.996094 290.21875 129.289062 289.359375 127.601562 288.453125 C 125.910156 287.550781 124.246094 286.609375 122.605469 285.625 C 120.960938 284.636719 119.347656 283.613281 117.753906 282.550781 C 116.164062 281.484375 114.597656 280.382812 113.0625 279.242188 C 111.523438 278.101562 110.015625 276.921875 108.535156 275.707031 C 107.054688 274.492188 105.605469 273.242188 104.1875 271.953125 C 102.769531 270.667969 101.382812 269.347656 100.03125 267.992188 C 98.675781 266.640625 97.355469 265.25 96.070312 263.832031 C 94.785156 262.414062 93.535156 260.964844 92.320312 259.480469 C 91.105469 258 89.929688 256.492188 88.789062 254.953125 C 87.648438 253.414062 86.546875 251.847656 85.484375 250.257812 C 84.421875 248.664062 83.394531 247.046875 82.414062 245.402344 C 81.429688 243.757812 80.484375 242.09375 79.582031 240.402344 C 78.679688 238.714844 77.820312 237.003906 77 235.273438 C 76.183594 233.539062 75.40625 231.789062 74.675781 230.019531 C 73.941406 228.25 73.253906 226.464844 72.609375 224.660156 C 71.964844 222.855469 71.363281 221.039062 70.808594 219.203125 C 70.253906 217.371094 69.742188 215.527344 69.277344 213.667969 C 68.8125 211.808594 68.390625 209.941406 68.019531 208.0625 C 67.644531 206.183594 67.316406 204.296875 67.039062 202.402344 C 66.757812 200.507812 66.523438 198.605469 66.335938 196.699219 C 66.148438 194.792969 66.007812 192.882812 65.914062 190.96875 C 65.816406 189.058594 65.769531 187.144531 65.769531 185.226562 C 65.769531 183.3125 65.816406 181.398438 65.914062 179.484375 C 66.007812 177.570312 66.148438 175.660156 66.335938 173.753906 C 66.523438 171.847656 66.757812 169.949219 67.039062 168.050781 C 67.316406 166.15625 67.644531 164.269531 68.019531 162.390625 C 68.390625 160.511719 68.8125 158.644531 69.277344 156.785156 C 69.742188 154.929688 70.253906 153.082031 70.808594 151.25 C 71.363281 149.417969 71.964844 147.597656 72.609375 145.792969 C 73.253906 143.992188 73.941406 142.203125 74.675781 140.433594 C 75.40625 138.664062 76.183594 136.914062 77 135.183594 C 77.820312 133.449219 78.679688 131.742188 79.582031 130.050781 C 80.484375 128.363281 81.429688 126.695312 82.414062 125.050781 C 83.394531 123.410156 84.421875 121.792969 85.484375 120.199219 C 86.546875 118.605469 87.648438 117.039062 88.789062 115.5 C 89.929688 113.960938 91.105469 112.453125 92.320312 110.972656 C 93.535156 109.492188 94.785156 108.042969 96.070312 106.621094 C 97.355469 105.203125 98.675781 103.816406 100.03125 102.460938 C 101.382812 101.105469 102.769531 99.785156 104.1875 98.5 C 105.605469 97.214844 107.054688 95.960938 108.535156 94.746094 C 110.015625 93.53125 111.523438 92.355469 113.0625 91.210938 C 114.597656 90.070312 116.164062 88.96875 117.753906 87.90625 C 119.347656 86.839844 120.960938 85.816406 122.605469 84.832031 C 124.246094 83.847656 125.910156 82.902344 127.601562 82 C 129.289062 81.097656 130.996094 80.234375 132.726562 79.417969 C 134.457031 78.597656 136.207031 77.820312 137.976562 77.089844 C 139.746094 76.355469 141.53125 75.664062 143.332031 75.019531 C 145.132812 74.375 146.953125 73.773438 148.785156 73.21875 C 150.617188 72.664062 152.460938 72.152344 154.316406 71.6875 C 156.171875 71.222656 158.039062 70.800781 159.917969 70.425781 C 161.796875 70.054688 163.679688 69.726562 165.574219 69.445312 C 167.46875 69.164062 169.367188 68.929688 171.273438 68.742188 C 173.175781 68.554688 175.085938 68.414062 176.996094 68.320312 C 178.910156 68.226562 180.824219 68.179688 182.738281 68.179688 C 184.652344 68.179688 186.5625 68.226562 188.476562 68.320312 C 190.386719 68.414062 192.296875 68.554688 194.203125 68.742188 C 196.105469 68.929688 198.007812 69.164062 199.898438 69.445312 C 201.792969 69.726562 203.679688 70.054688 205.554688 70.425781 C 207.433594 70.800781 209.300781 71.222656 211.15625 71.6875 C 213.015625 72.152344 214.859375 72.664062 216.691406 73.21875 C 218.523438 73.773438 220.339844 74.375 222.140625 75.019531 C 223.945312 75.664062 225.730469 76.355469 227.496094 77.089844 C 229.265625 77.820312 231.015625 78.597656 232.746094 79.417969 C 234.476562 80.234375 236.1875 81.097656 237.875 82 C 239.5625 82.902344 241.226562 83.847656 242.871094 84.832031 C 244.511719 85.816406 246.128906 86.839844 247.71875 87.90625 C 249.3125 88.96875 250.875 90.070312 252.414062 91.210938 C 253.949219 92.355469 255.460938 93.53125 256.9375 94.746094 C 258.417969 95.960938 259.867188 97.214844 261.285156 98.5 C 262.703125 99.785156 264.089844 101.105469 265.445312 102.460938 C 266.796875 103.816406 268.117188 105.203125 269.402344 106.621094 C 270.6875 108.042969 271.9375 109.492188 273.152344 110.972656 C 274.367188 112.453125 275.542969 113.960938 276.683594 115.5 C 277.824219 117.039062 278.925781 118.605469 279.992188 120.199219 C 281.054688 121.792969 282.078125 123.410156 283.0625 125.050781 C 284.046875 126.695312 284.988281 128.363281 285.890625 130.050781 C 286.792969 131.738281 287.652344 133.449219 288.472656 135.183594 C 289.292969 136.914062 290.066406 138.664062 290.800781 140.433594 C 291.53125 142.203125 292.21875 143.992188 292.867188 145.792969 C 293.511719 147.597656 294.109375 149.417969 294.667969 151.25 C 295.222656 153.082031 295.730469 154.929688 296.195312 156.785156 C 296.664062 158.644531 297.082031 160.511719 297.457031 162.390625 C 297.828125 164.269531 298.15625 166.15625 298.4375 168.050781 C 298.71875 169.949219 298.953125 171.847656 299.140625 173.753906 C 299.328125 175.660156 299.46875 177.570312 299.5625 179.484375 C 299.65625 181.398438 299.703125 183.3125 299.703125 185.226562 Z M 299.703125 185.226562 " fill-opacity="1" fill-rule="nonzero"/><path fill="#ffffff" d="M 185.859375 149.746094 L 185.859375 67.394531 L 114.589844 26.214844 L 43.320312 67.394531 L 43.320312 149.746094 L 114.589844 190.921875 Z M 185.859375 149.746094 " fill-opacity="1" fill-rule="nonzero"/><path fill="#251487" d="M 114.589844 192.597656 C 114.300781 192.597656 114.011719 192.519531 113.753906 192.371094 L 42.484375 151.195312 C 41.96875 150.894531 41.648438 150.34375 41.648438 149.746094 L 41.648438 67.394531 C 41.648438 66.796875 41.96875 66.242188 42.484375 65.945312 L 113.753906 24.769531 C 114.269531 24.46875 114.90625 24.46875 115.425781 24.769531 L 186.695312 65.945312 C 187.210938 66.242188 187.53125 66.796875 187.53125 67.394531 L 187.53125 149.746094 C 187.53125 150.34375 187.210938 150.894531 186.695312 151.195312 L 115.425781 192.371094 C 115.167969 192.519531 114.878906 192.597656 114.589844 192.597656 Z M 44.992188 148.78125 L 114.589844 188.992188 L 184.1875 148.78125 L 184.1875 68.359375 L 114.589844 28.148438 L 44.992188 68.359375 Z M 185.859375 149.746094 Z M 185.859375 149.746094 " fill-opacity="1" fill-rule="nonzero"/><path fill="#251487" d="M 185.855469 151.820312 C 185.570312 151.820312 185.28125 151.746094 185.019531 151.589844 L 42.480469 68.546875 C 41.679688 68.082031 41.410156 67.058594 41.875 66.261719 C 42.339844 65.464844 43.363281 65.191406 44.160156 65.65625 L 186.699219 148.699219 C 187.496094 149.164062 187.769531 150.1875 187.304688 150.988281 C 186.992188 151.519531 186.433594 151.820312 185.855469 151.820312 Z M 185.855469 151.820312 " fill-opacity="1" fill-rule="nonzero"/><path fill="#251487" d="M 43.320312 151.820312 C 42.746094 151.820312 42.183594 151.519531 41.875 150.988281 C 41.410156 150.1875 41.679688 149.164062 42.476562 148.699219 L 185.019531 65.65625 C 185.816406 65.191406 186.839844 65.464844 187.304688 66.261719 C 187.765625 67.058594 187.496094 68.082031 186.699219 68.546875 L 44.160156 151.589844 C 43.894531 151.746094 43.605469 151.820312 43.320312 151.820312 Z M 43.320312 151.820312 " fill-opacity="1" fill-rule="nonzero"/><path fill="#251487" d="M 114.589844 192.597656 C 113.667969 192.597656 112.917969 191.847656 112.917969 190.921875 L 112.917969 26.214844 C 112.917969 25.292969 113.667969 24.542969 114.589844 24.542969 C 115.511719 24.542969 116.261719 25.292969 116.261719 26.214844 L 116.261719 190.921875 C 116.261719 191.847656 115.511719 192.597656 114.589844 192.597656 Z M 114.589844 192.597656 " fill-opacity="1" fill-rule="nonzero"/><path fill="#ffffff" d="M 123.359375 17.4375 C 123.9375 18.011719 124.449219 18.640625 124.902344 19.320312 C 125.355469 19.996094 125.738281 20.710938 126.050781 21.464844 C 126.363281 22.21875 126.597656 22.996094 126.753906 23.792969 C 126.914062 24.59375 126.996094 25.402344 126.996094 26.214844 C 126.996094 27.03125 126.914062 27.839844 126.753906 28.640625 C 126.597656 29.4375 126.363281 30.214844 126.050781 30.96875 C 125.738281 31.722656 125.355469 32.4375 124.902344 33.113281 C 124.449219 33.792969 123.9375 34.417969 123.359375 34.996094 C 122.785156 35.574219 122.15625 36.085938 121.480469 36.539062 C 120.804688 36.992188 120.085938 37.375 119.335938 37.6875 C 118.582031 38 117.808594 38.234375 117.007812 38.394531 C 116.207031 38.554688 115.402344 38.632812 114.585938 38.632812 C 113.773438 38.632812 112.964844 38.554688 112.167969 38.394531 C 111.367188 38.234375 110.59375 38 109.839844 37.6875 C 109.085938 37.375 108.371094 36.992188 107.695312 36.539062 C 107.015625 36.085938 106.390625 35.574219 105.8125 34.996094 C 105.238281 34.417969 104.722656 33.792969 104.269531 33.113281 C 103.816406 32.4375 103.4375 31.722656 103.125 30.96875 C 102.8125 30.214844 102.578125 29.4375 102.417969 28.640625 C 102.257812 27.839844 102.179688 27.03125 102.179688 26.21875 C 102.179688 25.402344 102.257812 24.59375 102.417969 23.792969 C 102.578125 22.996094 102.8125 22.21875 103.125 21.464844 C 103.4375 20.710938 103.816406 19.996094 104.269531 19.320312 C 104.722656 18.640625 105.238281 18.015625 105.8125 17.4375 C 106.390625 16.859375 107.015625 16.347656 107.695312 15.894531 C 108.371094 15.441406 109.085938 15.058594 109.839844 14.746094 C 110.589844 14.433594 111.367188 14.199219 112.167969 14.039062 C 112.964844 13.878906 113.773438 13.800781 114.585938 13.800781 C 115.402344 13.800781 116.207031 13.878906 117.007812 14.039062 C 117.804688 14.199219 118.582031 14.433594 119.335938 14.746094 C 120.085938 15.058594 120.800781 15.441406 121.480469 15.894531 C 122.15625 16.347656 122.785156 16.859375 123.359375 17.4375 Z M 123.359375 17.4375 " fill-opacity="1" fill-rule="nonzero"/><path fill="#251487" d="M 114.589844 40.304688 C 106.828125 40.304688 100.511719 33.984375 100.511719 26.214844 C 100.511719 18.449219 106.828125 12.128906 114.589844 12.128906 C 122.351562 12.128906 128.667969 18.449219 128.667969 26.214844 C 128.667969 33.984375 122.351562 40.304688 114.589844 40.304688 Z M 114.589844 15.472656 C 108.667969 15.472656 103.851562 20.292969 103.851562 26.214844 C 103.851562 32.140625 108.667969 36.960938 114.589844 36.960938 C 120.507812 36.960938 125.324219 32.140625 125.324219 26.214844 C 125.324219 20.292969 120.507812 15.472656 114.589844 15.472656 Z M 114.589844 15.472656 " fill-opacity="1" fill-rule="nonzero"/><path fill="#80d0ff" d="M 194.628906 58.324219 C 195.207031 58.902344 195.71875 59.527344 196.171875 60.207031 C 196.625 60.882812 197.007812 61.597656 197.320312 62.351562 C 197.628906 63.105469 197.867188 63.882812 198.023438 64.679688 C 198.183594 65.480469 198.261719 66.289062 198.261719 67.101562 C 198.261719 67.917969 198.183594 68.726562 198.023438 69.527344 C 197.867188 70.324219 197.628906 71.101562 197.320312 71.855469 C 197.007812 72.609375 196.625 73.324219 196.171875 74 C 195.71875 74.679688 195.207031 75.304688 194.628906 75.882812 C 194.054688 76.460938 193.425781 76.972656 192.75 77.425781 C 192.070312 77.878906 191.355469 78.261719 190.605469 78.574219 C 189.851562 78.886719 189.074219 79.121094 188.277344 79.28125 C 187.476562 79.441406 186.671875 79.519531 185.855469 79.519531 C 185.042969 79.519531 184.234375 79.441406 183.4375 79.28125 C 182.636719 79.121094 181.859375 78.886719 181.109375 78.574219 C 180.355469 78.261719 179.640625 77.878906 178.964844 77.425781 C 178.285156 76.972656 177.660156 76.460938 177.082031 75.882812 C 176.507812 75.308594 175.992188 74.679688 175.539062 74 C 175.085938 73.324219 174.707031 72.609375 174.394531 71.855469 C 174.082031 71.101562 173.847656 70.324219 173.6875 69.527344 C 173.527344 68.726562 173.449219 67.917969 173.449219 67.105469 C 173.449219 66.289062 173.527344 65.480469 173.6875 64.679688 C 173.847656 63.882812 174.082031 63.105469 174.394531 62.351562 C 174.703125 61.597656 175.085938 60.882812 175.539062 60.207031 C 175.992188 59.527344 176.507812 58.902344 177.082031 58.324219 C 177.660156 57.746094 178.285156 57.234375 178.960938 56.78125 C 179.640625 56.328125 180.355469 55.945312 181.109375 55.632812 C 181.859375 55.320312 182.636719 55.085938 183.433594 54.925781 C 184.234375 54.765625 185.042969 54.6875 185.855469 54.6875 C 186.671875 54.6875 187.476562 54.765625 188.277344 54.925781 C 189.074219 55.085938 189.851562 55.320312 190.605469 55.632812 C 191.355469 55.945312 192.070312 56.328125 192.75 56.78125 C 193.425781 57.234375 194.054688 57.746094 194.628906 58.324219 Z M 194.628906 58.324219 " fill-opacity="1" fill-rule="nonzero"/><path fill="#251487" d="M 185.859375 81.191406 C 178.097656 81.191406 171.78125 74.871094 171.78125 67.101562 C 171.78125 59.335938 178.097656 53.015625 185.859375 53.015625 C 193.621094 53.015625 199.9375 59.335938 199.9375 67.101562 C 199.9375 74.871094 193.621094 81.191406 185.859375 81.191406 Z M 185.859375 56.359375 C 179.9375 56.359375 175.121094 61.179688 175.121094 67.101562 C 175.121094 73.027344 179.9375 77.847656 185.859375 77.847656 C 191.777344 77.847656 196.59375 73.027344 196.59375 67.101562 C 196.59375 61.179688 191.777344 56.359375 185.859375 56.359375 Z M 185.859375 56.359375 " fill-opacity="1" fill-rule="nonzero"/><path fill="#fcd888" d="M 198.265625 150.144531 C 198.265625 150.960938 198.1875 151.769531 198.027344 152.566406 C 197.867188 153.367188 197.632812 154.144531 197.320312 154.898438 C 197.011719 155.648438 196.628906 156.367188 196.175781 157.042969 C 195.722656 157.722656 195.207031 158.347656 194.632812 158.925781 C 194.054688 159.5 193.429688 160.015625 192.75 160.46875 C 192.074219 160.921875 191.359375 161.304688 190.605469 161.617188 C 189.855469 161.929688 189.078125 162.164062 188.28125 162.324219 C 187.480469 162.480469 186.671875 162.5625 185.859375 162.5625 C 185.042969 162.5625 184.238281 162.480469 183.4375 162.324219 C 182.640625 162.164062 181.863281 161.929688 181.109375 161.617188 C 180.359375 161.304688 179.644531 160.921875 178.964844 160.46875 C 178.289062 160.015625 177.660156 159.5 177.085938 158.925781 C 176.507812 158.347656 175.996094 157.722656 175.542969 157.042969 C 175.089844 156.367188 174.707031 155.648438 174.394531 154.898438 C 174.085938 154.144531 173.847656 153.367188 173.691406 152.566406 C 173.53125 151.769531 173.453125 150.960938 173.453125 150.144531 C 173.453125 149.332031 173.53125 148.523438 173.691406 147.722656 C 173.847656 146.921875 174.085938 146.148438 174.394531 145.394531 C 174.707031 144.640625 175.089844 143.925781 175.542969 143.246094 C 175.996094 142.570312 176.507812 141.941406 177.085938 141.367188 C 177.660156 140.789062 178.289062 140.273438 178.964844 139.820312 C 179.644531 139.371094 180.359375 138.988281 181.109375 138.675781 C 181.863281 138.363281 182.640625 138.128906 183.4375 137.96875 C 184.238281 137.808594 185.042969 137.730469 185.859375 137.730469 C 186.671875 137.730469 187.480469 137.808594 188.28125 137.96875 C 189.078125 138.128906 189.855469 138.363281 190.605469 138.675781 C 191.359375 138.988281 192.074219 139.371094 192.75 139.820312 C 193.429688 140.273438 194.054688 140.789062 194.632812 141.367188 C 195.207031 141.941406 195.722656 142.570312 196.175781 143.246094 C 196.628906 143.925781 197.011719 144.640625 197.320312 145.394531 C 197.632812 146.148438 197.867188 146.921875 198.027344 147.722656 C 198.1875 148.523438 198.265625 149.332031 198.265625 150.144531 Z M 198.265625 150.144531 " fill-opacity="1" fill-rule="nonzero"/><path fill="#251487" d="M 185.859375 164.234375 C 178.097656 164.234375 171.78125 157.914062 171.78125 150.144531 C 171.78125 142.378906 178.097656 136.058594 185.859375 136.058594 C 193.621094 136.058594 199.9375 142.378906 199.9375 150.144531 C 199.9375 157.914062 193.621094 164.234375 185.859375 164.234375 Z M 185.859375 139.402344 C 179.9375 139.402344 175.121094 144.222656 175.121094 150.144531 C 175.121094 156.070312 179.9375 160.890625 185.859375 160.890625 C 191.777344 160.890625 196.59375 156.070312 196.59375 150.144531 C 196.59375 144.222656 191.777344 139.402344 185.859375 139.402344 Z M 185.859375 139.402344 " fill-opacity="1" fill-rule="nonzero"/><path fill="#ffffff" d="M 123.355469 182.144531 C 123.929688 182.71875 124.445312 183.347656 124.898438 184.023438 C 125.351562 184.703125 125.730469 185.417969 126.042969 186.171875 C 126.355469 186.925781 126.589844 187.699219 126.75 188.5 C 126.910156 189.300781 126.988281 190.105469 126.988281 190.921875 C 126.988281 191.738281 126.910156 192.546875 126.75 193.34375 C 126.589844 194.144531 126.355469 194.921875 126.042969 195.675781 C 125.734375 196.425781 125.351562 197.144531 124.898438 197.820312 C 124.445312 198.5 123.929688 199.125 123.355469 199.703125 C 122.777344 200.277344 122.152344 200.792969 121.476562 201.246094 C 120.796875 201.699219 120.082031 202.082031 119.328125 202.394531 C 118.578125 202.707031 117.800781 202.941406 117.003906 203.101562 C 116.203125 203.257812 115.394531 203.339844 114.582031 203.339844 C 113.765625 203.339844 112.960938 203.257812 112.160156 203.101562 C 111.363281 202.941406 110.585938 202.707031 109.832031 202.394531 C 109.082031 202.082031 108.367188 201.699219 107.6875 201.246094 C 107.011719 200.792969 106.382812 200.277344 105.808594 199.703125 C 105.230469 199.125 104.71875 198.5 104.265625 197.820312 C 103.8125 197.144531 103.429688 196.425781 103.117188 195.675781 C 102.808594 194.921875 102.570312 194.144531 102.414062 193.34375 C 102.253906 192.546875 102.175781 191.738281 102.175781 190.921875 C 102.175781 190.109375 102.253906 189.300781 102.414062 188.5 C 102.570312 187.703125 102.808594 186.925781 103.117188 186.171875 C 103.429688 185.417969 103.8125 184.703125 104.265625 184.023438 C 104.71875 183.347656 105.230469 182.71875 105.808594 182.144531 C 106.382812 181.566406 107.011719 181.050781 107.6875 180.597656 C 108.367188 180.148438 109.082031 179.765625 109.832031 179.453125 C 110.585938 179.140625 111.363281 178.90625 112.160156 178.746094 C 112.960938 178.585938 113.765625 178.507812 114.582031 178.507812 C 115.394531 178.507812 116.203125 178.585938 117 178.746094 C 117.800781 178.90625 118.578125 179.140625 119.328125 179.453125 C 120.082031 179.765625 120.796875 180.144531 121.472656 180.597656 C 122.152344 181.050781 122.777344 181.566406 123.355469 182.144531 Z M 123.355469 182.144531 " fill-opacity="1" fill-rule="nonzero"/><path fill="#251487" d="M 114.585938 205.011719 C 106.820312 205.011719 100.507812 198.691406 100.507812 190.921875 C 100.507812 183.15625 106.820312 176.835938 114.585938 176.835938 C 122.347656 176.835938 128.664062 183.15625 128.664062 190.921875 C 128.664062 198.691406 122.347656 205.011719 114.585938 205.011719 Z M 114.585938 180.179688 C 108.664062 180.179688 103.847656 185 103.847656 190.921875 C 103.847656 196.847656 108.664062 201.667969 114.585938 201.667969 C 120.503906 201.667969 125.320312 196.847656 125.320312 190.921875 C 125.320312 185 120.503906 180.179688 114.585938 180.179688 Z M 114.585938 180.179688 " fill-opacity="1" fill-rule="nonzero"/><path fill="#80d0ff" d="M 55.726562 150.144531 C 55.726562 150.960938 55.648438 151.769531 55.488281 152.566406 C 55.328125 153.367188 55.09375 154.144531 54.78125 154.898438 C 54.46875 155.648438 54.089844 156.367188 53.636719 157.042969 C 53.183594 157.722656 52.667969 158.347656 52.09375 158.925781 C 51.515625 159.5 50.890625 160.015625 50.210938 160.46875 C 49.535156 160.921875 48.820312 161.304688 48.066406 161.617188 C 47.316406 161.929688 46.539062 162.164062 45.738281 162.324219 C 44.941406 162.480469 44.132812 162.5625 43.320312 162.5625 C 42.503906 162.5625 41.699219 162.480469 40.898438 162.324219 C 40.101562 162.164062 39.324219 161.929688 38.570312 161.617188 C 37.820312 161.304688 37.105469 160.921875 36.425781 160.46875 C 35.75 160.015625 35.121094 159.5 34.546875 158.925781 C 33.96875 158.347656 33.457031 157.722656 33.003906 157.042969 C 32.550781 156.367188 32.167969 155.648438 31.855469 154.898438 C 31.546875 154.144531 31.308594 153.367188 31.152344 152.566406 C 30.992188 151.769531 30.914062 150.960938 30.914062 150.144531 C 30.914062 149.332031 30.992188 148.523438 31.152344 147.722656 C 31.308594 146.921875 31.546875 146.148438 31.855469 145.394531 C 32.167969 144.640625 32.550781 143.925781 33.003906 143.246094 C 33.457031 142.570312 33.96875 141.941406 34.546875 141.367188 C 35.121094 140.789062 35.75 140.273438 36.425781 139.820312 C 37.105469 139.371094 37.820312 138.988281 38.570312 138.675781 C 39.324219 138.363281 40.101562 138.128906 40.898438 137.96875 C 41.699219 137.808594 42.503906 137.730469 43.320312 137.730469 C 44.132812 137.730469 44.941406 137.808594 45.738281 137.96875 C 46.539062 138.128906 47.316406 138.363281 48.066406 138.675781 C 48.820312 138.988281 49.535156 139.371094 50.210938 139.820312 C 50.890625 140.273438 51.515625 140.789062 52.09375 141.367188 C 52.667969 141.941406 53.183594 142.570312 53.636719 143.246094 C 54.089844 143.925781 54.46875 144.640625 54.78125 145.394531 C 55.09375 146.148438 55.328125 146.921875 55.488281 147.722656 C 55.648438 148.523438 55.726562 149.332031 55.726562 150.144531 Z M 55.726562 150.144531 " fill-opacity="1" fill-rule="nonzero"/><path fill="#251487" d="M 43.320312 164.234375 C 35.558594 164.234375 29.242188 157.914062 29.242188 150.144531 C 29.242188 142.378906 35.558594 136.058594 43.320312 136.058594 C 51.082031 136.058594 57.398438 142.378906 57.398438 150.144531 C 57.398438 157.914062 51.082031 164.234375 43.320312 164.234375 Z M 43.320312 139.402344 C 37.398438 139.402344 32.582031 144.222656 32.582031 150.144531 C 32.582031 156.070312 37.398438 160.890625 43.320312 160.890625 C 49.238281 160.890625 54.054688 156.070312 54.054688 150.144531 C 54.054688 144.222656 49.238281 139.402344 43.320312 139.402344 Z M 43.320312 139.402344 " fill-opacity="1" fill-rule="nonzero"/><path fill="#fcd888" d="M 52.089844 58.324219 C 52.667969 58.898438 53.179688 59.527344 53.632812 60.203125 C 54.085938 60.882812 54.46875 61.597656 54.78125 62.351562 C 55.09375 63.105469 55.328125 63.878906 55.488281 64.679688 C 55.644531 65.480469 55.726562 66.289062 55.726562 67.101562 C 55.726562 67.917969 55.644531 68.726562 55.488281 69.523438 C 55.328125 70.324219 55.09375 71.101562 54.78125 71.855469 C 54.46875 72.605469 54.085938 73.324219 53.632812 74 C 53.179688 74.679688 52.667969 75.304688 52.089844 75.882812 C 51.515625 76.457031 50.886719 76.972656 50.210938 77.425781 C 49.535156 77.878906 48.820312 78.261719 48.066406 78.574219 C 47.3125 78.886719 46.539062 79.121094 45.738281 79.28125 C 44.941406 79.4375 44.132812 79.519531 43.316406 79.519531 C 42.503906 79.519531 41.695312 79.4375 40.898438 79.28125 C 40.097656 79.121094 39.324219 78.886719 38.570312 78.574219 C 37.816406 78.261719 37.101562 77.878906 36.425781 77.425781 C 35.746094 76.972656 35.121094 76.457031 34.542969 75.882812 C 33.96875 75.304688 33.453125 74.679688 33 74 C 32.550781 73.324219 32.167969 72.605469 31.855469 71.855469 C 31.542969 71.101562 31.308594 70.324219 31.148438 69.523438 C 30.988281 68.726562 30.910156 67.917969 30.910156 67.101562 C 30.910156 66.289062 30.988281 65.480469 31.148438 64.679688 C 31.308594 63.882812 31.542969 63.105469 31.855469 62.351562 C 32.167969 61.597656 32.550781 60.882812 33 60.203125 C 33.453125 59.527344 33.96875 58.898438 34.542969 58.324219 C 35.121094 57.746094 35.746094 57.230469 36.425781 56.777344 C 37.101562 56.328125 37.816406 55.945312 38.570312 55.632812 C 39.320312 55.320312 40.097656 55.085938 40.898438 54.925781 C 41.695312 54.765625 42.503906 54.6875 43.316406 54.6875 C 44.132812 54.6875 44.9375 54.765625 45.738281 54.925781 C 46.535156 55.085938 47.3125 55.320312 48.066406 55.632812 C 48.816406 55.945312 49.535156 56.324219 50.210938 56.777344 C 50.886719 57.230469 51.515625 57.746094 52.089844 58.324219 Z M 52.089844 58.324219 " fill-opacity="1" fill-rule="nonzero"/><path fill="#251487" d="M 43.320312 81.191406 C 35.558594 81.191406 29.242188 74.871094 29.242188 67.101562 C 29.242188 59.335938 35.558594 53.015625 43.320312 53.015625 C 51.082031 53.015625 57.398438 59.335938 57.398438 67.101562 C 57.398438 74.871094 51.082031 81.191406 43.320312 81.191406 Z M 43.320312 56.359375 C 37.398438 56.359375 32.582031 61.179688 32.582031 67.101562 C 32.582031 73.027344 37.398438 77.847656 43.320312 77.847656 C 49.238281 77.847656 54.054688 73.027344 54.054688 67.101562 C 54.054688 61.179688 49.238281 56.359375 43.320312 56.359375 Z M 43.320312 56.359375 " fill-opacity="1" fill-rule="nonzero"/><path fill="#80d0ff" d="M 146.707031 99.585938 L 146.707031 127.988281 C 146.707031 131.078125 144.734375 133.859375 141.789062 134.792969 C 123.976562 140.4375 105.625 140.09375 86.808594 134.675781 C 83.761719 133.796875 81.6875 130.972656 81.6875 127.804688 L 81.6875 99.585938 Z M 146.707031 99.585938 " fill-opacity="1" fill-rule="nonzero"/><path fill="#251487" d="M 115.242188 140.558594 C 115.050781 140.558594 114.855469 140.554688 114.664062 140.554688 C 105.519531 140.496094 95.992188 139.058594 86.347656 136.28125 C 82.617188 135.207031 80.015625 131.722656 80.015625 127.804688 L 80.015625 99.585938 C 80.015625 98.664062 80.761719 97.914062 81.6875 97.914062 C 82.609375 97.914062 83.359375 98.664062 83.359375 99.585938 L 83.359375 127.804688 C 83.359375 130.238281 84.964844 132.402344 87.269531 133.066406 C 106.191406 138.515625 124.363281 138.5625 141.285156 133.199219 C 143.527344 132.488281 145.035156 130.394531 145.035156 127.988281 L 145.035156 99.585938 C 145.035156 98.664062 145.78125 97.914062 146.707031 97.914062 C 147.628906 97.914062 148.375 98.664062 148.375 99.585938 L 148.375 127.988281 C 148.375 131.859375 145.929688 135.234375 142.292969 136.386719 C 133.5625 139.15625 124.464844 140.558594 115.242188 140.558594 Z M 115.242188 140.558594 " fill-opacity="1" fill-rule="nonzero"/><path fill="#251487" d="M 62.957031 119.570312 C 62.035156 119.570312 61.285156 118.820312 61.285156 117.898438 L 61.285156 92.832031 C 61.285156 91.90625 62.035156 91.160156 62.957031 91.160156 C 63.878906 91.160156 64.628906 91.90625 64.628906 92.832031 L 64.628906 117.898438 C 64.628906 118.820312 63.878906 119.570312 62.957031 119.570312 Z M 62.957031 119.570312 " fill-opacity="1" fill-rule="nonzero"/><path fill="#80d0ff" d="M 64.140625 91.246094 L 112.289062 77.058594 C 113.535156 76.691406 114.859375 76.691406 116.101562 77.058594 L 164.25 91.246094 C 165.828125 91.710938 165.828125 93.949219 164.25 94.414062 L 116.101562 108.605469 C 114.859375 108.972656 113.53125 108.972656 112.289062 108.605469 L 64.140625 94.414062 C 62.5625 93.949219 62.5625 91.710938 64.140625 91.246094 Z M 64.140625 91.246094 " fill-opacity="1" fill-rule="nonzero"/><path fill="#251487" d="M 114.195312 110.554688 C 113.394531 110.554688 112.59375 110.4375 111.816406 110.210938 L 63.667969 96.019531 C 62.242188 95.601562 61.285156 94.316406 61.285156 92.832031 C 61.285156 91.34375 62.242188 90.0625 63.667969 89.644531 L 111.816406 75.453125 C 113.371094 74.996094 115.019531 74.996094 116.574219 75.453125 L 164.722656 89.644531 C 166.148438 90.0625 167.105469 91.34375 167.105469 92.832031 C 167.105469 94.316406 166.148438 95.597656 164.722656 96.019531 L 116.574219 110.210938 C 115.796875 110.4375 114.996094 110.554688 114.195312 110.554688 Z M 64.679688 92.832031 L 112.761719 107 C 113.699219 107.277344 114.691406 107.277344 115.632812 107 L 163.710938 92.832031 L 115.632812 78.660156 C 114.691406 78.386719 113.699219 78.386719 112.761719 78.660156 Z M 64.140625 91.246094 Z M 64.140625 91.246094 " fill-opacity="1" fill-rule="nonzero"/><path fill="#80d0ff" d="M 309.390625 177.773438 L 334.894531 191.1875 C 339.882812 193.875 343.726562 198.277344 345.71875 203.589844 L 359.910156 241.617188 C 362.667969 248.980469 360.394531 257.285156 354.277344 262.214844 L 350.636719 265.148438 C 349.519531 266.054688 348.121094 266.546875 346.683594 266.546875 L 226.90625 266.546875 C 225.46875 266.546875 224.074219 266.054688 222.953125 265.148438 L 219.3125 262.214844 C 213.195312 257.285156 210.933594 248.980469 213.679688 241.617188 L 227.875 203.589844 C 229.863281 198.277344 233.707031 193.875 238.699219 191.1875 L 264.199219 177.773438 Z M 309.390625 177.773438 " fill-opacity="1" fill-rule="nonzero"/><path fill="#251487" d="M 346.683594 268.21875 L 226.90625 268.21875 C 225.09375 268.21875 223.316406 267.589844 221.90625 266.453125 L 218.265625 263.515625 C 211.578125 258.128906 209.105469 249.089844 212.113281 241.03125 L 226.308594 203.003906 C 228.441406 197.3125 232.558594 192.59375 237.90625 189.714844 C 237.910156 189.710938 237.914062 189.707031 237.921875 189.707031 L 263.421875 176.292969 C 264.238281 175.863281 265.25 176.179688 265.679688 176.996094 C 266.109375 177.8125 265.792969 178.824219 264.976562 179.253906 L 239.484375 192.664062 C 234.851562 195.15625 231.285156 199.246094 229.4375 204.175781 L 215.246094 242.199219 C 212.742188 248.910156 214.800781 256.429688 220.363281 260.914062 L 224.003906 263.847656 C 224.820312 264.507812 225.851562 264.871094 226.90625 264.871094 L 346.683594 264.871094 C 347.738281 264.871094 348.769531 264.507812 349.589844 263.847656 L 353.226562 260.914062 C 358.796875 256.421875 360.855469 248.902344 358.34375 242.203125 L 344.152344 204.171875 C 342.304688 199.246094 338.738281 195.15625 334.105469 192.664062 L 308.613281 179.253906 C 307.796875 178.824219 307.480469 177.8125 307.910156 176.996094 C 308.339844 176.179688 309.351562 175.863281 310.167969 176.292969 L 335.671875 189.707031 C 335.675781 189.710938 335.679688 189.710938 335.683594 189.714844 C 341.03125 192.59375 345.148438 197.3125 347.28125 203 L 361.476562 241.03125 C 364.492188 249.082031 362.019531 258.121094 355.324219 263.515625 L 351.6875 266.453125 C 350.273438 267.589844 348.5 268.21875 346.683594 268.21875 Z M 346.683594 268.21875 " fill-opacity="1" fill-rule="nonzero"/><path fill="#ffffff" d="M 336.09375 266.546875 L 237.644531 266.546875 L 237.644531 210.105469 C 237.644531 206.625 240.464844 203.804688 243.945312 203.804688 L 329.796875 203.804688 C 333.273438 203.804688 336.09375 206.625 336.09375 210.105469 Z M 336.09375 266.546875 " fill-opacity="1" fill-rule="nonzero"/><path fill="#251487" d="M 336.09375 268.21875 L 237.644531 268.21875 C 236.722656 268.21875 235.972656 267.46875 235.972656 266.546875 L 235.972656 210.105469 C 235.972656 205.710938 239.550781 202.132812 243.945312 202.132812 L 329.796875 202.132812 C 334.191406 202.132812 337.765625 205.710938 337.765625 210.105469 L 337.765625 266.546875 C 337.765625 267.46875 337.019531 268.21875 336.09375 268.21875 Z M 239.316406 264.871094 L 334.425781 264.871094 L 334.425781 210.105469 C 334.425781 207.554688 332.347656 205.476562 329.796875 205.476562 L 243.945312 205.476562 C 241.390625 205.476562 239.316406 207.554688 239.316406 210.105469 Z M 239.316406 264.871094 " fill-opacity="1" fill-rule="nonzero"/><path fill="#251487" d="M 237.644531 243.980469 C 237.347656 243.980469 237.046875 243.902344 236.777344 243.734375 L 227.765625 238.269531 C 226.976562 237.789062 226.722656 236.761719 227.203125 235.96875 C 227.679688 235.179688 228.707031 234.929688 229.496094 235.40625 L 238.511719 240.875 C 239.300781 241.355469 239.550781 242.382812 239.074219 243.171875 C 238.757812 243.691406 238.207031 243.980469 237.644531 243.980469 Z M 237.644531 243.980469 " fill-opacity="1" fill-rule="nonzero"/><path fill="#251487" d="M 336.09375 243.980469 C 335.527344 243.980469 334.976562 243.691406 334.664062 243.171875 C 334.183594 242.382812 334.4375 241.355469 335.226562 240.875 L 344.238281 235.40625 C 345.027344 234.929688 346.054688 235.179688 346.535156 235.96875 C 347.011719 236.761719 346.761719 237.789062 345.972656 238.269531 L 336.960938 243.734375 C 336.6875 243.902344 336.390625 243.980469 336.09375 243.980469 Z M 336.09375 243.980469 " fill-opacity="1" fill-rule="nonzero"/><path fill="#fcd888" d="M 322.667969 145.308594 L 322.667969 124.71875 C 322.667969 116.488281 318.035156 110.71875 311.953125 108.808594 L 281.375 108.808594 L 314.511719 148.628906 Z M 322.667969 145.308594 " fill-opacity="1" fill-rule="nonzero"/><path fill="#251487" d="M 314.511719 150.300781 C 314.035156 150.300781 313.558594 150.097656 313.226562 149.699219 L 280.089844 109.878906 C 279.671875 109.382812 279.585938 108.6875 279.859375 108.101562 C 280.132812 107.511719 280.726562 107.136719 281.371094 107.136719 L 311.957031 107.136719 C 312.125 107.136719 312.292969 107.164062 312.457031 107.214844 C 315.90625 108.296875 318.84375 110.445312 320.957031 113.425781 C 323.167969 116.554688 324.339844 120.457031 324.339844 124.71875 L 324.339844 145.308594 C 324.339844 146.230469 323.589844 146.980469 322.667969 146.980469 C 321.746094 146.980469 320.996094 146.230469 320.996094 145.308594 L 320.996094 124.71875 C 320.996094 117.832031 317.4375 112.402344 311.691406 110.484375 L 284.941406 110.484375 L 315.796875 147.558594 C 316.386719 148.269531 316.289062 149.324219 315.582031 149.914062 C 315.269531 150.175781 314.890625 150.300781 314.511719 150.300781 Z M 314.511719 150.300781 " fill-opacity="1" fill-rule="nonzero"/><path fill="#fcd888" d="M 285.203125 115.703125 L 300.191406 115.703125 C 307.636719 115.703125 313.675781 109.664062 313.675781 102.207031 L 273.304688 102.207031 C 260.839844 102.207031 250.738281 112.320312 250.738281 124.789062 L 250.738281 145.53125 Z M 285.203125 115.703125 " fill-opacity="1" fill-rule="nonzero"/><path fill="#251487" d="M 250.738281 147.207031 C 249.8125 147.207031 249.066406 146.457031 249.066406 145.53125 L 249.066406 124.789062 C 249.066406 111.414062 259.9375 100.535156 273.304688 100.535156 L 313.675781 100.535156 C 314.601562 100.535156 315.347656 101.285156 315.347656 102.207031 C 315.347656 110.570312 308.546875 117.378906 300.191406 117.378906 L 285.203125 117.378906 C 284.28125 117.378906 283.535156 116.628906 283.535156 115.703125 C 283.535156 114.78125 284.28125 114.03125 285.203125 114.03125 L 300.191406 114.03125 C 306.136719 114.03125 311.074219 109.609375 311.886719 103.878906 L 273.304688 103.878906 C 261.78125 103.878906 252.410156 113.261719 252.410156 124.789062 L 252.410156 145.53125 C 252.410156 146.457031 251.660156 147.207031 250.738281 147.207031 Z M 250.738281 147.207031 " fill-opacity="1" fill-rule="nonzero"/><path fill="#ffffff" d="M 314.117188 141.449219 L 314.117188 138.414062 C 314.117188 125.859375 303.945312 115.6875 291.402344 115.6875 L 282.03125 115.6875 C 269.488281 115.6875 259.320312 125.859375 259.320312 138.414062 L 259.320312 141.457031 C 253.089844 141.542969 248.0625 146.617188 248.0625 152.875 C 248.0625 159.128906 253.089844 164.207031 259.320312 164.292969 L 259.320312 165.222656 C 259.320312 178.941406 270.433594 190.0625 284.144531 190.0625 L 289.292969 190.0625 C 303 190.0625 314.117188 178.941406 314.117188 165.222656 L 314.117188 164.300781 C 320.421875 164.300781 325.53125 159.183594 325.53125 152.875 C 325.53125 146.5625 320.421875 141.449219 314.117188 141.449219 Z M 314.117188 141.449219 " fill-opacity="1" fill-rule="nonzero"/><path fill="#251487" d="M 289.292969 191.734375 L 284.144531 191.734375 C 269.738281 191.734375 257.984375 180.175781 257.65625 165.839844 C 254.820312 165.445312 252.207031 164.140625 250.164062 162.074219 C 247.730469 159.605469 246.390625 156.339844 246.390625 152.875 C 246.390625 149.40625 247.730469 146.140625 250.164062 143.675781 C 252.203125 141.609375 254.816406 140.304688 257.648438 139.910156 L 257.648438 138.414062 C 257.648438 124.960938 268.585938 114.011719 282.03125 114.011719 L 291.402344 114.011719 C 304.847656 114.011719 315.789062 124.960938 315.789062 138.414062 L 315.789062 139.882812 C 322.21875 140.707031 327.203125 146.21875 327.203125 152.875 C 327.203125 159.53125 322.214844 165.046875 315.78125 165.867188 C 315.4375 180.191406 303.6875 191.734375 289.292969 191.734375 Z M 282.03125 117.359375 C 270.429688 117.359375 260.992188 126.804688 260.992188 138.414062 L 260.992188 141.457031 C 260.992188 142.371094 260.257812 143.117188 259.34375 143.128906 C 254.042969 143.203125 249.734375 147.574219 249.734375 152.875 C 249.734375 158.175781 254.042969 162.546875 259.34375 162.621094 C 260.257812 162.632812 260.992188 163.378906 260.992188 164.292969 L 260.992188 165.222656 C 260.992188 178 271.375 188.390625 284.144531 188.390625 L 289.292969 188.390625 C 302.058594 188.390625 312.445312 178 312.445312 165.222656 L 312.445312 164.300781 C 312.445312 163.375 313.191406 162.628906 314.117188 162.628906 C 319.488281 162.628906 323.863281 158.253906 323.863281 152.875 C 323.863281 147.496094 319.488281 143.121094 314.117188 143.121094 C 313.191406 143.121094 312.445312 142.371094 312.445312 141.449219 L 312.445312 138.414062 C 312.445312 126.804688 303.003906 117.359375 291.402344 117.359375 Z M 282.03125 117.359375 " fill-opacity="1" fill-rule="nonzero"/><path fill="#251487" d="M 306.417969 156.105469 L 296.039062 156.105469 C 293.792969 156.105469 291.800781 154.675781 291.078125 152.554688 C 291.074219 152.542969 291.066406 152.527344 291.0625 152.515625 L 288.761719 145.207031 L 284.875 145.207031 L 282.917969 152.265625 C 282.289062 154.527344 280.210938 156.105469 277.867188 156.105469 L 267.484375 156.105469 C 265.242188 156.105469 263.246094 154.679688 262.523438 152.554688 C 262.519531 152.542969 262.515625 152.527344 262.511719 152.515625 L 259.839844 144.039062 C 259.679688 143.53125 259.773438 142.976562 260.085938 142.546875 C 260.402344 142.117188 260.902344 141.863281 261.4375 141.863281 L 283.566406 141.863281 C 283.59375 141.863281 283.617188 141.863281 283.644531 141.863281 L 289.949219 141.863281 C 289.976562 141.863281 290 141.863281 290.027344 141.863281 L 312.160156 141.863281 C 312.683594 141.863281 313.175781 142.105469 313.488281 142.523438 C 313.804688 142.941406 313.910156 143.480469 313.769531 143.984375 L 311.46875 152.265625 C 310.839844 154.527344 308.765625 156.105469 306.417969 156.105469 Z M 294.246094 151.488281 C 294.511719 152.25 295.230469 152.761719 296.039062 152.761719 L 306.417969 152.761719 C 307.269531 152.761719 308.023438 152.1875 308.25 151.367188 L 309.960938 145.207031 L 292.269531 145.207031 Z M 265.691406 151.488281 C 265.960938 152.25 266.675781 152.761719 267.484375 152.761719 L 277.867188 152.761719 C 278.714844 152.761719 279.46875 152.1875 279.695312 151.367188 L 281.40625 145.207031 L 263.714844 145.207031 Z M 265.691406 151.488281 " fill-opacity="1" fill-rule="nonzero"/><path fill="#80d0ff" d="M 38.285156 300.671875 L 38.285156 245.613281 C 38.285156 243.78125 39.769531 242.296875 41.597656 242.296875 L 187.746094 242.296875 C 189.578125 242.296875 191.0625 243.78125 191.0625 245.613281 L 191.0625 300.671875 Z M 38.285156 300.671875 " fill-opacity="1" fill-rule="nonzero"/><path fill="#251487" d="M 191.0625 302.34375 L 38.285156 302.34375 C 37.359375 302.34375 36.613281 301.59375 36.613281 300.671875 L 36.613281 245.613281 C 36.613281 242.863281 38.847656 240.621094 41.597656 240.621094 L 187.746094 240.621094 C 190.496094 240.621094 192.734375 242.863281 192.734375 245.613281 L 192.734375 300.671875 C 192.734375 301.59375 191.984375 302.34375 191.0625 302.34375 Z M 39.953125 299 L 189.390625 299 L 189.390625 245.613281 C 189.390625 244.707031 188.652344 243.96875 187.746094 243.96875 L 41.597656 243.96875 C 40.691406 243.96875 39.953125 244.707031 39.953125 245.613281 Z M 39.953125 299 " fill-opacity="1" fill-rule="nonzero"/><path fill="#ffffff" d="M 69.421875 364.730469 L 69.421875 361.03125 C 69.421875 359.40625 70.070312 357.847656 71.222656 356.707031 L 77.765625 350.214844 C 81.214844 345.691406 83.625 340.464844 84.820312 334.902344 L 89.382812 313.335938 C 89.890625 310.945312 88.40625 308.582031 86.035156 308.003906 C 83.546875 307.394531 81.050781 308.972656 80.53125 311.480469 L 78.664062 320.507812 C 78.359375 321.988281 77.6875 323.371094 76.714844 324.53125 L 75.597656 325.859375 C 75.089844 326.464844 74.121094 326.285156 73.863281 325.539062 L 72.960938 322.914062 C 72.632812 321.960938 72.464844 320.953125 72.464844 319.941406 L 72.464844 282.875 C 72.464844 280.167969 70.273438 277.976562 67.570312 277.976562 C 64.867188 277.976562 62.675781 280.167969 62.675781 282.875 L 62.675781 313.445312 L 62.675781 276.488281 C 62.675781 273.78125 60.484375 271.589844 57.78125 271.589844 C 55.078125 271.589844 52.886719 273.78125 52.886719 276.488281 L 52.886719 313.445312 L 52.886719 282.875 C 52.886719 280.167969 50.695312 277.976562 47.992188 277.976562 C 45.289062 277.976562 43.097656 280.167969 43.097656 282.875 L 43.097656 313.445312 L 43.097656 293.335938 C 43.097656 290.632812 40.90625 288.441406 38.203125 288.441406 C 35.5 288.441406 33.308594 290.632812 33.308594 293.335938 L 33.308594 336.460938 C 33.308594 340.945312 34.683594 345.320312 37.242188 349 L 42.238281 356.175781 C 43.289062 357.6875 43.855469 359.480469 43.855469 361.316406 L 43.855469 364.730469 Z M 69.421875 364.730469 " fill-opacity="1" fill-rule="nonzero"/><g clip-path="url(#81712575d0)"><path fill="#251487" d="M 69.421875 366.402344 C 68.5 366.402344 67.753906 365.652344 67.753906 364.730469 L 67.753906 361.03125 C 67.753906 358.976562 68.589844 356.964844 70.046875 355.519531 L 76.503906 349.109375 C 79.75 344.828125 82.058594 339.796875 83.183594 334.550781 L 87.75 312.988281 C 88.070312 311.472656 87.144531 309.996094 85.636719 309.628906 C 84.878906 309.441406 84.097656 309.570312 83.4375 309.988281 C 82.777344 310.402344 82.324219 311.054688 82.167969 311.820312 L 80.300781 320.847656 C 79.941406 322.589844 79.144531 324.238281 77.996094 325.605469 L 76.875 326.9375 C 76.253906 327.675781 75.28125 328.027344 74.332031 327.851562 C 73.382812 327.671875 72.597656 326.996094 72.28125 326.082031 L 71.378906 323.460938 C 70.988281 322.324219 70.792969 321.140625 70.792969 319.941406 L 70.792969 282.875 C 70.792969 281.09375 69.34375 279.648438 67.570312 279.648438 C 65.792969 279.648438 64.34375 281.09375 64.34375 282.875 L 64.34375 313.445312 C 64.34375 314.367188 63.597656 315.117188 62.675781 315.117188 C 61.75 315.117188 61.003906 314.367188 61.003906 313.445312 L 61.003906 276.488281 C 61.003906 274.707031 59.558594 273.261719 57.78125 273.261719 C 56.003906 273.261719 54.558594 274.707031 54.558594 276.488281 L 54.558594 313.445312 C 54.558594 314.367188 53.808594 315.117188 52.886719 315.117188 C 51.964844 315.117188 51.214844 314.367188 51.214844 313.445312 L 51.214844 282.875 C 51.214844 281.09375 49.769531 279.648438 47.992188 279.648438 C 46.214844 279.648438 44.769531 281.09375 44.769531 282.875 L 44.769531 313.445312 C 44.769531 314.367188 44.019531 315.117188 43.097656 315.117188 C 42.175781 315.117188 41.425781 314.367188 41.425781 313.445312 L 41.425781 293.335938 C 41.425781 291.558594 39.980469 290.113281 38.203125 290.113281 C 36.425781 290.113281 34.980469 291.558594 34.980469 293.335938 L 34.980469 336.460938 C 34.980469 340.621094 36.238281 344.628906 38.613281 348.042969 L 43.609375 355.21875 C 44.863281 357.019531 45.523438 359.128906 45.523438 361.316406 L 45.523438 364.730469 C 45.523438 365.652344 44.777344 366.402344 43.851562 366.402344 C 42.929688 366.402344 42.183594 365.652344 42.183594 364.730469 L 42.183594 361.316406 C 42.183594 359.816406 41.726562 358.367188 40.867188 357.132812 L 35.871094 349.957031 C 33.101562 345.976562 31.636719 341.308594 31.636719 336.460938 L 31.636719 293.335938 C 31.636719 289.714844 34.585938 286.765625 38.203125 286.765625 C 39.375 286.765625 40.472656 287.074219 41.425781 287.613281 L 41.425781 282.875 C 41.425781 279.25 44.371094 276.304688 47.992188 276.304688 C 49.164062 276.304688 50.261719 276.609375 51.214844 277.148438 L 51.214844 276.488281 C 51.214844 272.863281 54.160156 269.917969 57.78125 269.917969 C 61.398438 269.917969 64.34375 272.863281 64.34375 276.488281 L 64.34375 277.152344 C 65.296875 276.609375 66.398438 276.304688 67.570312 276.304688 C 71.1875 276.304688 74.132812 279.25 74.132812 282.875 L 74.132812 319.941406 C 74.132812 320.769531 74.269531 321.585938 74.539062 322.371094 L 75.066406 323.894531 L 75.4375 323.453125 C 76.230469 322.511719 76.777344 321.375 77.027344 320.171875 L 78.894531 311.144531 C 79.238281 309.480469 80.214844 308.066406 81.652344 307.160156 C 83.085938 306.25 84.78125 305.972656 86.429688 306.378906 C 89.699219 307.175781 91.714844 310.386719 91.019531 313.683594 L 86.453125 335.25 C 85.214844 341.015625 82.667969 346.542969 79.09375 351.230469 C 79.046875 351.289062 78.996094 351.347656 78.941406 351.402344 L 72.402344 357.894531 C 71.570312 358.71875 71.09375 359.859375 71.09375 361.03125 L 71.09375 364.730469 C 71.09375 365.652344 70.347656 366.402344 69.421875 366.402344 Z M 69.421875 366.402344 " fill-opacity="1" fill-rule="nonzero"/></g><path fill="#ffffff" d="M 159.753906 364.730469 L 159.753906 361.03125 C 159.753906 359.40625 159.105469 357.847656 157.953125 356.707031 L 151.414062 350.214844 C 147.964844 345.691406 145.554688 340.464844 144.359375 334.902344 L 139.792969 313.335938 C 139.289062 310.945312 140.769531 308.582031 143.144531 308.003906 C 145.632812 307.394531 148.128906 308.972656 148.648438 311.480469 L 150.515625 320.507812 C 150.820312 321.988281 151.492188 323.371094 152.460938 324.53125 L 153.582031 325.859375 C 154.085938 326.464844 155.058594 326.285156 155.3125 325.539062 L 156.21875 322.914062 C 156.546875 321.960938 156.714844 320.953125 156.714844 319.941406 L 156.714844 282.875 C 156.714844 280.167969 158.90625 277.976562 161.609375 277.976562 C 164.3125 277.976562 166.503906 280.167969 166.503906 282.875 L 166.503906 313.445312 L 166.503906 276.488281 C 166.503906 273.78125 168.695312 271.589844 171.398438 271.589844 C 174.101562 271.589844 176.292969 273.78125 176.292969 276.488281 L 176.292969 313.445312 L 176.292969 282.875 C 176.292969 280.167969 178.484375 277.976562 181.1875 277.976562 C 183.890625 277.976562 186.078125 280.167969 186.078125 282.875 L 186.078125 313.445312 L 186.078125 293.335938 C 186.078125 290.632812 188.269531 288.441406 190.972656 288.441406 C 193.675781 288.441406 195.867188 290.632812 195.867188 293.335938 L 195.867188 336.460938 C 195.867188 340.945312 194.496094 345.320312 191.933594 349 L 186.9375 356.175781 C 185.886719 357.6875 185.324219 359.480469 185.324219 361.316406 L 185.324219 364.730469 Z M 159.753906 364.730469 " fill-opacity="1" fill-rule="nonzero"/><g clip-path="url(#7e46f23ecf)"><path fill="#251487" d="M 159.753906 366.402344 C 158.832031 366.402344 158.085938 365.652344 158.085938 364.730469 L 158.085938 361.03125 C 158.085938 359.863281 157.609375 358.71875 156.777344 357.894531 L 150.238281 351.402344 C 150.183594 351.347656 150.132812 351.289062 150.085938 351.230469 C 146.507812 346.542969 143.964844 341.019531 142.726562 335.253906 L 138.160156 313.683594 C 137.460938 310.386719 139.476562 307.175781 142.75 306.378906 C 144.394531 305.972656 146.09375 306.25 147.527344 307.160156 C 148.960938 308.066406 149.941406 309.480469 150.285156 311.144531 L 152.152344 320.167969 C 152.398438 321.375 152.949219 322.511719 153.742188 323.453125 L 154.113281 323.894531 L 154.636719 322.371094 C 154.90625 321.589844 155.042969 320.769531 155.042969 319.941406 L 155.042969 282.875 C 155.042969 279.25 157.988281 276.304688 161.609375 276.304688 C 162.78125 276.304688 163.878906 276.613281 164.832031 277.152344 L 164.832031 276.488281 C 164.832031 272.863281 167.777344 269.917969 171.398438 269.917969 C 175.019531 269.917969 177.964844 272.863281 177.964844 276.488281 L 177.964844 277.152344 C 178.914062 276.609375 180.015625 276.304688 181.1875 276.304688 C 184.804688 276.304688 187.75 279.25 187.75 282.875 L 187.75 287.613281 C 188.703125 287.074219 189.804688 286.769531 190.972656 286.769531 C 194.59375 286.769531 197.539062 289.714844 197.539062 293.335938 L 197.539062 336.460938 C 197.539062 341.308594 196.074219 345.976562 193.308594 349.957031 L 188.308594 357.132812 C 187.449219 358.367188 186.996094 359.816406 186.996094 361.320312 L 186.996094 364.730469 C 186.996094 365.652344 186.246094 366.402344 185.324219 366.402344 C 184.402344 366.402344 183.652344 365.652344 183.652344 364.730469 L 183.652344 361.320312 C 183.652344 359.128906 184.316406 357.019531 185.566406 355.222656 L 190.5625 348.042969 C 192.941406 344.628906 194.195312 340.621094 194.195312 336.460938 L 194.195312 293.339844 C 194.195312 291.558594 192.75 290.113281 190.972656 290.113281 C 189.195312 290.113281 187.75 291.558594 187.75 293.339844 L 187.75 313.445312 C 187.75 314.367188 187.003906 315.117188 186.082031 315.117188 C 185.15625 315.117188 184.410156 314.367188 184.410156 313.445312 L 184.410156 282.875 C 184.410156 281.09375 182.964844 279.648438 181.1875 279.648438 C 179.410156 279.648438 177.960938 281.09375 177.960938 282.875 L 177.960938 313.445312 C 177.960938 314.367188 177.214844 315.117188 176.292969 315.117188 C 175.367188 315.117188 174.621094 314.367188 174.621094 313.445312 L 174.621094 276.488281 C 174.621094 274.707031 173.175781 273.261719 171.398438 273.261719 C 169.621094 273.261719 168.175781 274.707031 168.175781 276.488281 L 168.175781 313.445312 C 168.175781 314.371094 167.425781 315.117188 166.503906 315.117188 C 165.582031 315.117188 164.832031 314.371094 164.832031 313.445312 L 164.832031 282.875 C 164.832031 281.09375 163.386719 279.648438 161.609375 279.648438 C 159.832031 279.648438 158.386719 281.09375 158.386719 282.875 L 158.386719 319.941406 C 158.386719 321.144531 158.1875 322.328125 157.796875 323.460938 L 156.894531 326.082031 C 156.582031 326.996094 155.796875 327.671875 154.847656 327.851562 C 153.898438 328.027344 152.921875 327.675781 152.300781 326.9375 L 151.183594 325.605469 C 150.035156 324.238281 149.238281 322.59375 148.878906 320.847656 L 147.011719 311.820312 C 146.851562 311.054688 146.402344 310.402344 145.742188 309.988281 C 145.082031 309.570312 144.300781 309.441406 143.542969 309.628906 C 142.035156 309.996094 141.109375 311.472656 141.429688 312.992188 L 145.992188 334.554688 C 147.121094 339.800781 149.429688 344.832031 152.671875 349.109375 L 159.128906 355.519531 C 160.589844 356.964844 161.425781 358.976562 161.425781 361.03125 L 161.425781 364.730469 C 161.425781 365.652344 160.679688 366.402344 159.753906 366.402344 Z M 159.753906 366.402344 " fill-opacity="1" fill-rule="nonzero"/></g><path fill="#251487" d="M 165.550781 258.351562 L 159.320312 258.351562 C 158.394531 258.351562 157.648438 257.601562 157.648438 256.675781 C 157.648438 255.753906 158.394531 255.003906 159.320312 255.003906 L 165.550781 255.003906 C 166.476562 255.003906 167.222656 255.753906 167.222656 256.675781 C 167.222656 257.601562 166.476562 258.351562 165.550781 258.351562 Z M 165.550781 258.351562 " fill-opacity="1" fill-rule="nonzero"/><path fill="#251487" d="M 149.992188 258.351562 L 143.757812 258.351562 C 142.835938 258.351562 142.089844 257.601562 142.089844 256.675781 C 142.089844 255.753906 142.835938 255.003906 143.757812 255.003906 L 149.992188 255.003906 C 150.914062 255.003906 151.664062 255.753906 151.664062 256.675781 C 151.664062 257.601562 150.914062 258.351562 149.992188 258.351562 Z M 149.992188 258.351562 " fill-opacity="1" fill-rule="nonzero"/><path fill="#251487" d="M 180.007812 258.351562 L 173.773438 258.351562 C 172.851562 258.351562 172.101562 257.601562 172.101562 256.675781 C 172.101562 255.753906 172.851562 255.003906 173.773438 255.003906 L 180.007812 255.003906 C 180.929688 255.003906 181.679688 255.753906 181.679688 256.675781 C 181.679688 257.601562 180.929688 258.351562 180.007812 258.351562 Z M 180.007812 258.351562 " fill-opacity="1" fill-rule="nonzero"/><path fill="#251487" d="M 149.992188 287.960938 L 143.757812 287.960938 C 142.835938 287.960938 142.089844 287.210938 142.089844 286.289062 C 142.089844 285.363281 142.835938 284.617188 143.757812 284.617188 L 149.992188 284.617188 C 150.914062 284.617188 151.664062 285.363281 151.664062 286.289062 C 151.664062 287.210938 150.914062 287.960938 149.992188 287.960938 Z M 149.992188 287.960938 " fill-opacity="1" fill-rule="nonzero"/><path fill="#251487" d="M 149.992188 273.15625 L 143.757812 273.15625 C 142.835938 273.15625 142.089844 272.40625 142.089844 271.484375 C 142.089844 270.558594 142.835938 269.808594 143.757812 269.808594 L 149.992188 269.808594 C 150.914062 269.808594 151.664062 270.558594 151.664062 271.484375 C 151.664062 272.40625 150.914062 273.15625 149.992188 273.15625 Z M 149.992188 273.15625 " fill-opacity="1" fill-rule="nonzero"/><path fill="#251487" d="M 56.675781 258.351562 L 49.339844 258.351562 C 48.414062 258.351562 47.667969 257.601562 47.667969 256.675781 C 47.667969 255.753906 48.414062 255.003906 49.339844 255.003906 L 56.675781 255.003906 C 57.601562 255.003906 58.347656 255.753906 58.347656 256.675781 C 58.347656 257.601562 57.601562 258.351562 56.675781 258.351562 Z M 56.675781 258.351562 " fill-opacity="1" fill-rule="nonzero"/><path fill="#251487" d="M 73.292969 258.351562 L 65.953125 258.351562 C 65.03125 258.351562 64.28125 257.601562 64.28125 256.675781 C 64.28125 255.753906 65.03125 255.003906 65.953125 255.003906 L 73.292969 255.003906 C 74.214844 255.003906 74.964844 255.753906 74.964844 256.675781 C 74.964844 257.601562 74.214844 258.351562 73.292969 258.351562 Z M 73.292969 258.351562 " fill-opacity="1" fill-rule="nonzero"/><path fill="#251487" d="M 73.292969 273.15625 L 65.953125 273.15625 C 65.03125 273.15625 64.28125 272.40625 64.28125 271.484375 C 64.28125 270.558594 65.03125 269.808594 65.953125 269.808594 L 73.292969 269.808594 C 74.214844 269.808594 74.964844 270.558594 74.964844 271.484375 C 74.964844 272.40625 74.214844 273.15625 73.292969 273.15625 Z M 73.292969 273.15625 " fill-opacity="1" fill-rule="nonzero"/><path fill="#251487" d="M 89.910156 258.351562 L 82.570312 258.351562 C 81.648438 258.351562 80.898438 257.601562 80.898438 256.675781 C 80.898438 255.753906 81.648438 255.003906 82.570312 255.003906 L 89.910156 255.003906 C 90.832031 255.003906 91.578125 255.753906 91.578125 256.675781 C 91.578125 257.601562 90.832031 258.351562 89.910156 258.351562 Z M 89.910156 258.351562 " fill-opacity="1" fill-rule="nonzero"/><path fill="#251487" d="M 89.910156 273.15625 L 82.570312 273.15625 C 81.648438 273.15625 80.898438 272.40625 80.898438 271.484375 C 80.898438 270.558594 81.648438 269.808594 82.570312 269.808594 L 89.910156 269.808594 C 90.832031 269.808594 91.578125 270.558594 91.578125 271.484375 C 91.578125 272.40625 90.832031 273.15625 89.910156 273.15625 Z M 89.910156 273.15625 " fill-opacity="1" fill-rule="nonzero"/><path fill="#251487" d="M 106.523438 258.351562 L 99.1875 258.351562 C 98.261719 258.351562 97.515625 257.601562 97.515625 256.675781 C 97.515625 255.753906 98.261719 255.003906 99.1875 255.003906 L 106.523438 255.003906 C 107.449219 255.003906 108.195312 255.753906 108.195312 256.675781 C 108.195312 257.601562 107.449219 258.351562 106.523438 258.351562 Z M 106.523438 258.351562 " fill-opacity="1" fill-rule="nonzero"/><path fill="#251487" d="M 106.523438 273.15625 L 99.1875 273.15625 C 98.261719 273.15625 97.515625 272.40625 97.515625 271.484375 C 97.515625 270.558594 98.261719 269.808594 99.1875 269.808594 L 106.523438 269.808594 C 107.449219 269.808594 108.195312 270.558594 108.195312 271.484375 C 108.195312 272.40625 107.449219 273.15625 106.523438 273.15625 Z M 106.523438 273.15625 " fill-opacity="1" fill-rule="nonzero"/><path fill="#251487" d="M 123.140625 258.351562 L 115.800781 258.351562 C 114.878906 258.351562 114.128906 257.601562 114.128906 256.675781 C 114.128906 255.753906 114.878906 255.003906 115.800781 255.003906 L 123.140625 255.003906 C 124.0625 255.003906 124.8125 255.753906 124.8125 256.675781 C 124.8125 257.601562 124.0625 258.351562 123.140625 258.351562 Z M 123.140625 258.351562 " fill-opacity="1" fill-rule="nonzero"/><path fill="#251487" d="M 123.140625 273.15625 L 115.800781 273.15625 C 114.878906 273.15625 114.128906 272.40625 114.128906 271.484375 C 114.128906 270.558594 114.878906 269.808594 115.800781 269.808594 L 123.140625 269.808594 C 124.0625 269.808594 124.8125 270.558594 124.8125 271.484375 C 124.8125 272.40625 124.0625 273.15625 123.140625 273.15625 Z M 123.140625 273.15625 " fill-opacity="1" fill-rule="nonzero"/><path fill="#251487" d="M 123.140625 287.960938 L 84.652344 287.960938 C 83.726562 287.960938 82.980469 287.210938 82.980469 286.289062 C 82.980469 285.363281 83.726562 284.617188 84.652344 284.617188 L 123.140625 284.617188 C 124.0625 284.617188 124.8125 285.363281 124.8125 286.289062 C 124.8125 287.210938 124.0625 287.960938 123.140625 287.960938 Z M 123.140625 287.960938 " fill-opacity="1" fill-rule="nonzero"/><path fill="#ffffff" d="M 61.867188 242.296875 L 51.644531 242.296875 L 51.644531 236.046875 C 51.644531 235.054688 52.449219 234.246094 53.441406 234.246094 L 60.070312 234.246094 C 61.0625 234.246094 61.867188 235.054688 61.867188 236.046875 Z M 61.867188 242.296875 " fill-opacity="1" fill-rule="nonzero"/><path fill="#251487" d="M 61.867188 243.96875 L 51.644531 243.96875 C 50.722656 243.96875 49.972656 243.21875 49.972656 242.296875 L 49.972656 236.046875 C 49.972656 234.132812 51.53125 232.574219 53.441406 232.574219 L 60.070312 232.574219 C 61.984375 232.574219 63.539062 234.132812 63.539062 236.046875 L 63.539062 242.296875 C 63.539062 243.21875 62.792969 243.96875 61.867188 243.96875 Z M 53.316406 240.625 L 60.195312 240.625 L 60.195312 236.046875 C 60.195312 235.976562 60.140625 235.917969 60.070312 235.917969 L 53.441406 235.917969 C 53.375 235.917969 53.316406 235.976562 53.316406 236.046875 Z M 53.316406 240.625 " fill-opacity="1" fill-rule="nonzero"/><path fill="#251487" d="M 56.757812 235.917969 C 55.832031 235.917969 55.085938 235.171875 55.085938 234.246094 L 55.085938 230.917969 C 55.085938 225.4375 59.539062 220.980469 65.015625 220.980469 L 154.175781 220.980469 C 157.808594 220.980469 160.765625 218.019531 160.765625 214.386719 C 160.765625 213.460938 161.511719 212.714844 162.4375 212.714844 C 163.359375 212.714844 164.105469 213.460938 164.105469 214.386719 C 164.105469 219.867188 159.652344 224.324219 154.175781 224.324219 L 65.015625 224.324219 C 61.382812 224.324219 58.425781 227.28125 58.425781 230.917969 L 58.425781 234.246094 C 58.425781 235.171875 57.679688 235.917969 56.757812 235.917969 Z M 56.757812 235.917969 " fill-opacity="1" fill-rule="nonzero"/><path fill="#251487" d="M 162.855469 273.261719 L 159.320312 273.261719 C 158.394531 273.261719 157.648438 272.511719 157.648438 271.589844 C 157.648438 270.664062 158.394531 269.917969 159.320312 269.917969 L 162.855469 269.917969 C 163.78125 269.917969 164.527344 270.664062 164.527344 271.589844 C 164.527344 272.511719 163.78125 273.261719 162.855469 273.261719 Z M 162.855469 273.261719 " fill-opacity="1" fill-rule="nonzero"/></svg>