<svg xmlns="http://www.w3.org/2000/svg" xmlns:xlink="http://www.w3.org/1999/xlink" width="500" zoomAndPan="magnify" viewBox="0 0 375 374.999991" height="500" preserveAspectRatio="xMidYMid meet" version="1.0"><defs><clipPath id="82efbed36f"><path d="M 126 129.078125 L 215 129.078125 L 215 215 L 126 215 Z M 126 129.078125 " clip-rule="nonzero"/></clipPath><clipPath id="d6fbb26fb3"><path d="M 170 129.078125 L 183 129.078125 L 183 208 L 170 208 Z M 170 129.078125 " clip-rule="nonzero"/></clipPath><clipPath id="6dadb73a79"><path d="M 121.058594 174 L 150 174 L 150 188 L 121.058594 188 Z M 121.058594 174 " clip-rule="nonzero"/></clipPath><clipPath id="e2503e6f5c"><path d="M 121.058594 174 L 149 174 L 149 184 L 121.058594 184 Z M 121.058594 174 " clip-rule="nonzero"/></clipPath><clipPath id="94aa6fe47e"><path d="M 134 176 L 253.808594 176 L 253.808594 265 L 134 265 Z M 134 176 " clip-rule="nonzero"/></clipPath><clipPath id="6c9e48450c"><path d="M 193 190 L 253.808594 190 L 253.808594 247 L 193 247 Z M 193 190 " clip-rule="nonzero"/></clipPath><clipPath id="b3dfac5dbe"><path d="M 194 192 L 253.808594 192 L 253.808594 246 L 194 246 Z M 194 192 " clip-rule="nonzero"/></clipPath><clipPath id="c642ff68b9"><path d="M 193 211 L 253 211 L 253 265.578125 L 193 265.578125 Z M 193 211 " clip-rule="nonzero"/></clipPath></defs><g clip-path="url(#82efbed36f)"><path fill="#d59b65" d="M 152.199219 212.015625 C 152.136719 210.410156 152.074219 208.804688 152.011719 207.199219 C 155.15625 206.507812 158.347656 206.046875 161.5625 205.820312 C 162.425781 203.503906 165.191406 202.085938 167.578125 202.738281 C 166.703125 200.78125 168.296875 198.691406 168.9375 196.648438 C 169.375 195.261719 169.367188 193.785156 169.355469 192.335938 C 169.230469 176.207031 169.105469 160.078125 168.980469 143.953125 C 163.398438 147.589844 156.945312 150.945312 150.382812 149.804688 C 144.15625 148.722656 139.207031 143.800781 133.074219 142.261719 C 131.800781 141.941406 129.804688 142.542969 130.28125 143.761719 C 131.09375 143.519531 131.964844 144.511719 131.617188 145.285156 C 131.417969 147.25 128.15625 147.554688 127.164062 145.84375 C 126.171875 144.132812 127.246094 141.800781 128.960938 140.816406 C 130.679688 139.835938 132.785156 139.871094 134.75 140.105469 C 137.398438 140.421875 140.011719 141.042969 142.523438 141.953125 C 144.675781 142.730469 146.804688 143.734375 149.089844 143.847656 C 155.925781 144.1875 162.105469 136.605469 168.535156 138.949219 C 168.804688 137.851562 169.074219 136.761719 169.34375 135.664062 C 167.574219 135.878906 165.789062 134.371094 165.699219 132.589844 C 165.609375 130.8125 167.234375 129.132812 169.015625 129.164062 C 170.929688 129.195312 172.464844 130.945312 172.90625 132.8125 C 173.351562 134.671875 172.957031 136.621094 172.5625 138.496094 C 175.085938 137.140625 178.238281 137.832031 180.816406 139.085938 C 183.394531 140.339844 185.730469 142.117188 188.453125 143.007812 C 193.929688 144.792969 199.832031 142.707031 205.242188 140.71875 C 206.886719 140.117188 208.582031 139.511719 210.335938 139.566406 C 212.085938 139.621094 213.925781 140.488281 214.617188 142.101562 C 215.3125 143.710938 214.324219 145.960938 212.578125 146.125 C 210.835938 146.292969 209.5625 143.59375 211.003906 142.597656 C 199.511719 147.402344 191.042969 154.234375 174.160156 144.046875 C 174.230469 161.84375 173.699219 179.644531 172.402344 197.359375 C 174.265625 198.300781 175.398438 200.507812 175.074219 202.570312 C 176.652344 202.414062 178.296875 202.265625 179.777344 202.832031 C 181.257812 203.394531 182.511719 204.898438 182.234375 206.457031 C 184.007812 205.714844 189.183594 206.902344 190.402344 207.027344 C 191.195312 207.109375 190.589844 209.453125 189.738281 211.171875 C 188.773438 213.113281 186.183594 213.265625 184.027344 213.511719 C 172.96875 214.765625 167.390625 215.148438 152.796875 213.09375 C 153.007812 212.804688 150.546875 212.511719 152.199219 212.019531 Z M 152.199219 212.015625 " fill-opacity="1" fill-rule="nonzero"/></g><path fill="#f3bb57" d="M 130.984375 145.425781 C 130.265625 145.183594 129.546875 144.941406 128.832031 144.695312 C 128.582031 143.453125 129.414062 142.183594 130.53125 141.585938 C 131.648438 140.992188 132.980469 140.949219 134.242188 141.070312 C 141.117188 141.738281 147.152344 146.816406 154.058594 146.683594 C 156.761719 146.632812 159.378906 145.769531 161.949219 144.917969 C 164.398438 144.105469 166.847656 143.289062 169.445312 142.886719 C 169.328125 143.378906 169.214844 143.875 169.097656 144.363281 C 164.292969 147.902344 158.652344 151.003906 152.703125 150.527344 C 147.503906 150.109375 142.960938 147.039062 138.378906 144.542969 C 136.351562 143.441406 134.148438 142.40625 131.847656 142.554688 C 131.339844 142.585938 130.78125 142.710938 130.484375 143.125 C 130.191406 143.539062 130.414062 144.289062 130.921875 144.28125 C 131.101562 144.277344 131.273438 144.1875 131.449219 144.195312 C 131.867188 144.21875 132.054688 144.792969 131.863281 145.167969 C 131.667969 145.539062 131.261719 145.734375 130.980469 145.425781 Z M 130.984375 145.425781 " fill-opacity="1" fill-rule="nonzero"/><path fill="#f3bb57" d="M 173.800781 143.902344 C 176.238281 142.507812 179.304688 142.28125 181.921875 143.300781 C 183.375 143.871094 184.664062 144.789062 186.046875 145.519531 C 192.007812 148.675781 199.675781 148.019531 205.261719 144.242188 C 206.386719 143.480469 207.453125 142.59375 208.730469 142.132812 C 210.007812 141.667969 211.59375 141.730469 212.542969 142.695312 C 213.496094 143.667969 213.285156 145.640625 211.988281 146.054688 C 211.363281 146.25 210.515625 145.890625 210.488281 145.230469 C 210.460938 144.460938 211.433594 143.550781 210.800781 143.113281 C 204.285156 144.980469 199.011719 150.902344 192.234375 150.902344 C 185.382812 150.902344 179.46875 144.71875 173.804688 143.902344 Z M 173.800781 143.902344 " fill-opacity="1" fill-rule="nonzero"/><g clip-path="url(#d6fbb26fb3)"><path fill="#f3bb57" d="M 172.089844 139.695312 C 172.421875 159.273438 172.324219 178.855469 171.753906 198.460938 C 173.378906 199.390625 173.9375 201.777344 172.890625 203.328125 C 174.199219 203 175.679688 203.007812 176.804688 203.757812 C 177.929688 204.507812 178.496094 206.15625 177.867188 207.367188 C 179.464844 206.980469 181.097656 206.769531 182.875 206.796875 C 182.714844 203.820312 179.421875 201.453125 176.550781 202.238281 C 177.113281 199.816406 175.261719 197.121094 172.800781 196.773438 C 173.863281 176.527344 174.183594 156.242188 173.332031 135.835938 C 174.402344 134.769531 174.652344 132.972656 173.917969 131.648438 C 173.179688 130.328125 171.523438 129.59375 170.050781 129.9375 C 171.390625 130.308594 172.136719 132.054688 171.472656 133.277344 C 171.339844 133.527344 171.15625 133.761719 171.082031 134.035156 C 171.019531 134.253906 171.035156 134.484375 171.050781 134.710938 C 171.195312 136.964844 171.339844 139.21875 172.089844 139.691406 Z M 172.089844 139.695312 " fill-opacity="1" fill-rule="nonzero"/></g><path fill="#f3bb57" d="M 159.609375 209.3125 C 169.535156 208.890625 179.464844 208.46875 189.386719 208.046875 C 190.476562 209.003906 190.058594 210.921875 188.933594 211.839844 C 187.8125 212.753906 186.277344 212.933594 184.832031 213.058594 C 174.519531 213.925781 164.132812 213.625 153.824219 212.710938 C 153.628906 212.691406 153.425781 212.671875 153.269531 212.554688 C 152.929688 212.300781 153.011719 211.777344 153.15625 211.378906 C 153.472656 210.480469 153.933594 209.5625 153.761719 208.625 C 153.597656 207.6875 152.386719 206.910156 151.679688 207.550781 C 151.441406 208.851562 151.203125 210.148438 150.964844 211.445312 C 150.902344 211.773438 150.847656 212.128906 151.007812 212.425781 C 151.21875 212.808594 151.703125 212.929688 152.136719 213.003906 C 163.09375 214.964844 174.34375 215.277344 185.394531 213.933594 C 186.484375 213.800781 187.597656 213.640625 188.566406 213.121094 C 190.640625 212.007812 191.5625 209.152344 190.527344 207.035156 C 179.226562 206.957031 167.917969 207.160156 159.609375 209.308594 Z M 159.609375 209.3125 " fill-opacity="1" fill-rule="nonzero"/><g clip-path="url(#6dadb73a79)"><path fill="#b16f2f" d="M 121.058594 178.300781 C 121.71875 182.363281 125.054688 185.671875 128.9375 187.035156 C 132.820312 188.402344 137.144531 188.035156 141.070312 186.800781 C 144.175781 185.824219 147.277344 184.160156 148.863281 181.316406 C 149.703125 179.808594 150 177.785156 148.925781 176.433594 C 147.886719 175.132812 146.015625 174.929688 144.347656 174.871094 C 138.75 174.675781 133.132812 174.980469 127.589844 175.769531 C 124.886719 176.15625 122.015625 176.75 121.058594 178.304688 Z M 121.058594 178.300781 " fill-opacity="1" fill-rule="nonzero"/></g><g clip-path="url(#e2503e6f5c)"><path fill="#d59b65" d="M 148.105469 176.355469 C 141.679688 174.628906 134.925781 174.105469 128.304688 174.828125 C 126.078125 175.074219 123.730469 175.515625 122.070312 177.027344 C 121.824219 177.25 121.589844 177.503906 121.496094 177.824219 C 121.316406 178.429688 121.691406 179.050781 122.105469 179.53125 C 123.925781 181.664062 126.695312 182.757812 129.441406 183.320312 C 135.070312 184.472656 141.078125 183.664062 146.199219 181.0625 C 147.152344 180.578125 148.132812 179.96875 148.5625 178.992188 C 148.988281 178.011719 148.578125 176.488281 148.105469 176.363281 Z M 148.105469 176.355469 " fill-opacity="1" fill-rule="nonzero"/></g><path fill="#b16f2f" d="M 221.367188 177.445312 C 221.648438 180.929688 219.203125 184.226562 216.074219 185.78125 C 212.941406 187.335938 209.269531 187.414062 205.804688 186.933594 C 201.070312 186.28125 196.046875 184.277344 193.902344 180.007812 C 193.503906 179.21875 193.234375 178.234375 193.703125 177.488281 C 193.917969 177.144531 194.261719 176.90625 194.613281 176.707031 C 196.121094 175.839844 197.867188 175.511719 199.585938 175.261719 C 204.113281 174.601562 208.699219 174.375 213.269531 174.589844 C 216.316406 174.730469 219.503906 175.121094 221.367188 177.449219 Z M 221.367188 177.445312 " fill-opacity="1" fill-rule="nonzero"/><path fill="#d59b65" d="M 220.546875 177.359375 C 218.074219 181.109375 213.371094 181.167969 209.261719 181.246094 C 204.457031 181.335938 199.515625 180.921875 195.199219 178.808594 C 194.8125 178.617188 194.386719 178.359375 194.3125 177.933594 C 194.242188 177.503906 194.5625 177.113281 194.90625 176.84375 C 195.949219 176.03125 197.3125 175.785156 198.621094 175.578125 C 206.191406 174.40625 214.097656 173.9375 220.546875 177.359375 Z M 220.546875 177.359375 " fill-opacity="1" fill-rule="nonzero"/><path fill="#c78241" d="M 134.589844 140.238281 C 133.964844 141.867188 133.871094 143.695312 134.332031 145.378906 C 133.269531 145.742188 132.871094 147.300781 133.625 148.128906 C 129.898438 157.625 126.171875 167.121094 122.445312 176.621094 C 122.675781 176.675781 122.90625 176.730469 123.136719 176.785156 C 127.183594 167.144531 131.003906 157.410156 134.597656 147.59375 C 136.117188 158.773438 138.050781 169.902344 140.394531 180.941406 C 140.800781 181.136719 141.015625 180.441406 140.933594 179.992188 C 139.003906 169.539062 137.070312 159.085938 135.140625 148.636719 C 138.652344 158.183594 142.160156 167.730469 145.667969 177.277344 C 146.078125 177.257812 146.480469 177.078125 146.765625 176.78125 C 143.363281 167.058594 139.683594 157.433594 135.734375 147.921875 C 136.402344 147.945312 137.027344 147.347656 137.03125 146.679688 C 137.035156 146.007812 136.414062 145.402344 135.746094 145.417969 C 136.394531 144.421875 137.070312 143.363281 137.121094 142.171875 C 137.171875 140.980469 136.335938 139.664062 134.589844 140.246094 Z M 134.589844 140.238281 " fill-opacity="1" fill-rule="nonzero"/><path fill="#cc8745" d="M 206.816406 140.761719 C 206.898438 141.792969 206.984375 142.824219 207.066406 143.855469 C 206.109375 144.3125 205.457031 145.355469 205.476562 146.414062 C 205.492188 147.472656 206.171875 148.5 207.144531 148.921875 C 203.804688 158.675781 200.613281 168.488281 197.578125 178.339844 C 197.398438 178.921875 197.488281 179.851562 198.089844 179.777344 C 200.792969 169.671875 204.019531 159.703125 207.738281 149.929688 C 206.394531 158.246094 205.523438 166.636719 205.125 175.050781 L 205.96875 175.015625 C 206.820312 166.800781 207.671875 158.585938 208.519531 150.371094 C 208.460938 151.84375 209.429688 153.121094 210.175781 154.386719 C 211.558594 156.753906 212.273438 159.441406 212.972656 162.09375 C 214.527344 168.011719 216.085938 173.9375 217.640625 179.855469 C 217.980469 179.679688 218.320312 179.503906 218.660156 179.332031 C 216.4375 168.90625 213.152344 158.710938 208.875 148.949219 C 210.441406 147.96875 209.921875 145.070312 208.113281 144.6875 C 208.398438 143.183594 208.441406 141.636719 208.242188 140.121094 C 207.394531 139.789062 206.328125 140.515625 206.808594 140.753906 Z M 206.816406 140.761719 " fill-opacity="1" fill-rule="nonzero"/><g clip-path="url(#94aa6fe47e)"><path fill="#7b1720" d="M 253.183594 192.695312 C 253.753906 193.867188 253.148438 195.289062 252.347656 196.308594 C 251.550781 197.328125 250.53125 198.226562 250.128906 199.46875 C 249.832031 200.386719 249.902344 201.382812 249.9375 202.347656 C 250.019531 205.007812 249.742188 207.679688 249.117188 210.261719 C 250.003906 210.351562 251.109375 209.796875 251.835938 210.324219 C 252.566406 210.847656 253.011719 214.449219 252.90625 215.714844 C 233.828125 232.214844 214.554688 246.863281 195.476562 263.363281 C 194.894531 263.867188 194.28125 264.386719 193.539062 264.546875 C 192.765625 264.71875 191.964844 264.472656 191.210938 264.226562 C 171.777344 257.90625 152.859375 249.875 134.730469 240.253906 C 135.929688 233.605469 137.125 226.949219 138.320312 220.300781 C 150.679688 211.789062 187.21875 182.328125 194.457031 176.582031 C 213.84375 181.347656 233.230469 186.113281 252.75 190.855469 C 252.417969 192.332031 252.703125 193.945312 253.1875 192.699219 Z M 253.183594 192.695312 " fill-opacity="1" fill-rule="nonzero"/></g><path fill="#731017" d="M 138.3125 220.296875 C 138.839844 221.332031 141.421875 221.519531 142.421875 220.980469 C 143.417969 220.441406 144.09375 219.441406 144.804688 218.539062 C 147.167969 215.550781 150.3125 213.359375 153.359375 211.128906 C 155.910156 209.253906 167.710938 199.84375 168.671875 199.394531 C 169.5 199.007812 170.140625 198.300781 170.769531 197.621094 C 176.246094 191.71875 182.652344 186.746094 189.730469 182.890625 C 191.578125 180.378906 194.289062 178.554688 197.253906 177.832031 C 196.429688 177 195.101562 176.925781 194.019531 177.328125 C 192.9375 177.730469 192.042969 178.527344 191.167969 179.300781 C 179.453125 189.695312 166.953125 199.085938 154.46875 208.464844 C 149.378906 212.292969 143.15625 216.070312 138.3125 220.296875 Z M 138.3125 220.296875 " fill-opacity="1" fill-rule="nonzero"/><path fill="#591218" d="M 149.132812 212.269531 C 150.164062 212.207031 150.789062 211.96875 151.679688 212.511719 C 152.574219 213.054688 153.796875 213.410156 154.574219 212.703125 C 154.132812 211.929688 153.507812 211.269531 152.773438 210.796875 C 153.488281 211.253906 154.246094 211.71875 155.085938 211.722656 C 155.925781 211.722656 156.824219 211.042969 156.757812 210.179688 C 156.683594 209.222656 155.585938 208.742188 154.660156 208.699219 C 152.75 208.613281 151.09375 210.511719 149.132812 212.273438 Z M 149.132812 212.269531 " fill-opacity="1" fill-rule="nonzero"/><path fill="#591218" d="M 164.117188 200.828125 C 165.191406 201.550781 166.265625 202.273438 167.339844 202.992188 C 168.085938 202.328125 167.945312 200.898438 167.085938 200.402344 C 167.640625 200.734375 168.3125 200.9375 168.933594 200.761719 C 169.554688 200.585938 170.070312 199.941406 169.960938 199.28125 C 169.855469 198.65625 169.21875 198.238281 168.605469 198.203125 C 167.988281 198.171875 167.398438 198.4375 166.855469 198.738281 C 165.46875 199.503906 164.21875 200.523438 164.121094 200.828125 Z M 164.117188 200.828125 " fill-opacity="1" fill-rule="nonzero"/><path fill="#591218" d="M 175.976562 191.324219 C 177.554688 192.535156 179.609375 192.625 181.570312 192.5625 C 181.0625 191.867188 180.554688 191.175781 180.042969 190.484375 C 181.164062 191.039062 182.574219 190.902344 183.574219 190.144531 C 182.8125 188.863281 181.335938 188.078125 179.890625 188.1875 C 178.441406 188.296875 177.011719 189.839844 175.976562 191.328125 Z M 175.976562 191.324219 " fill-opacity="1" fill-rule="nonzero"/><path fill="#591218" d="M 186.539062 182.898438 C 188.117188 184.308594 189.964844 183.738281 192.039062 183.539062 C 191.472656 183.0625 190.90625 182.585938 190.335938 182.109375 C 190.9375 182.246094 191.570312 182.378906 192.164062 182.21875 C 192.757812 182.054688 193.300781 181.484375 193.234375 180.851562 C 193.199219 180.546875 193.027344 180.269531 192.820312 180.046875 C 192 179.191406 190.613281 179.175781 189.558594 179.683594 C 188.503906 180.191406 187.988281 182.398438 186.542969 182.898438 Z M 186.539062 182.898438 " fill-opacity="1" fill-rule="nonzero"/><path fill="#781d24" d="M 247.714844 191.234375 C 247.480469 194.917969 244.371094 197.726562 241.140625 199.292969 C 237.914062 200.855469 234.328125 201.65625 231.34375 203.679688 C 228.847656 205.375 226.933594 207.832031 225.0625 210.246094 C 219.5625 217.335938 214.0625 224.429688 208.558594 231.527344 C 207.113281 233.390625 205.636719 235.285156 203.726562 236.621094 C 201.789062 237.976562 199.480469 238.699219 197.601562 240.144531 C 196.859375 240.714844 196.179688 241.398438 195.324219 241.761719 C 193.488281 242.539062 191.429688 241.644531 189.640625 240.769531 C 175.171875 233.703125 160.464844 227.175781 145.550781 221.199219 C 144.925781 220.949219 144.230469 220.621094 144.042969 219.960938 C 143.863281 219.339844 144.21875 218.6875 144.636719 218.207031 C 147.269531 215.152344 151.996094 215.59375 155.492188 213.683594 C 160.558594 210.921875 162.011719 203.949219 166.460938 200.210938 C 170.46875 196.84375 176.320312 196.597656 180.273438 193.15625 C 183.296875 190.527344 184.785156 186.382812 187.78125 183.71875 C 190.878906 180.96875 195.226562 180.164062 199.292969 180.507812 C 203.359375 180.851562 207.269531 182.214844 211.203125 183.339844 C 222.785156 186.652344 234.796875 187.9375 247.714844 191.234375 Z M 247.714844 191.234375 " fill-opacity="1" fill-rule="nonzero"/><path fill="#831a22" d="M 238.882812 192.632812 C 229.519531 191.613281 220.164062 190.597656 210.800781 189.578125 C 205.679688 189.019531 199.316406 189.089844 196.847656 193.777344 C 196.316406 194.785156 196.035156 195.949219 196.136719 197.09375 C 196.214844 197.953125 196.503906 198.792969 196.480469 199.65625 C 196.410156 202.230469 193.761719 203.816406 191.390625 204.558594 C 185.226562 206.488281 178.328125 206.332031 172.894531 209.914062 C 169.433594 212.199219 166.589844 215.976562 162.511719 216.484375 C 160.089844 216.785156 157.066406 216.070312 155.636719 218.117188 C 163.183594 222.449219 171.394531 225.53125 179.863281 227.210938 C 183.230469 227.878906 186.738281 228.371094 189.664062 230.222656 C 191.144531 231.160156 192.449219 232.4375 194.082031 233.050781 C 198.484375 234.703125 203.117188 230.855469 205.320312 226.570312 C 207.519531 222.289062 208.476562 217.273438 211.453125 213.527344 C 214.902344 209.1875 220.390625 207.359375 225.242188 204.847656 C 231.265625 201.726562 236.644531 197.273438 238.882812 192.632812 Z M 238.882812 192.632812 " fill-opacity="1" fill-rule="nonzero"/><path fill="#faf0d8" d="M 252.511719 193.898438 C 235.714844 211.289062 216.867188 228.636719 198.558594 244.304688 C 197.683594 245.054688 196.75 245.828125 195.628906 246.03125 C 194.683594 246.199219 193.722656 245.9375 192.796875 245.675781 C 175.027344 240.585938 157.753906 233.628906 141.328125 224.949219 C 140.253906 229.101562 139.179688 233.253906 138.105469 237.40625 C 154.324219 250.179688 177.203125 249.804688 194.484375 260.972656 C 209.808594 243.128906 226.71875 228.667969 245.597656 214.96875 C 247.4375 213.636719 252.335938 209.308594 251.835938 209.765625 C 251.261719 210.289062 252.511719 200.414062 252.511719 193.902344 Z M 252.511719 193.898438 " fill-opacity="1" fill-rule="nonzero"/><path fill="#dfd2b0" d="M 252.511719 193.898438 C 232.902344 210.621094 213.640625 228.289062 195.214844 246.398438 C 176.46875 242.21875 158.039062 236.511719 140.152344 229.34375 C 139.832031 230.199219 139.511719 231.054688 139.1875 231.910156 C 156.378906 239.007812 173.957031 245.078125 191.820312 250.089844 C 192.867188 250.386719 193.945312 250.679688 195.023438 250.546875 C 196.453125 250.367188 197.691406 249.472656 198.84375 248.578125 C 218.421875 233.4375 232.164062 212.058594 252.511719 198.050781 C 252.417969 197.21875 253.449219 196.152344 252.511719 193.894531 Z M 252.511719 193.898438 " fill-opacity="1" fill-rule="nonzero"/><path fill="#dfd2b0" d="M 139.011719 237.808594 C 157.570312 245.476562 175.949219 253.675781 194.5625 261.191406 C 201.175781 250.503906 212.460938 243.285156 221.964844 235.269531 C 231.746094 227.019531 240.234375 216.898438 251.101562 210.632812 C 251.265625 209.953125 252.28125 208.269531 251.605469 208.265625 C 250.929688 208.261719 248.601562 209.71875 248.046875 210.117188 C 228.582031 223.957031 210.421875 239.761719 193.898438 257.230469 C 176.253906 250.589844 158.792969 243.410156 141.550781 235.714844 C 140.019531 235.03125 137.769531 234.609375 139.011719 237.804688 Z M 139.011719 237.808594 " fill-opacity="1" fill-rule="nonzero"/><path fill="#b6a989" d="M 252.167969 196.65625 C 232.9375 213.253906 214.1875 230.445312 195.949219 248.203125 C 195.992188 248.976562 197.171875 248.6875 197.726562 248.171875 C 216.265625 231.027344 234.800781 213.878906 252.171875 196.65625 Z M 252.167969 196.65625 " fill-opacity="1" fill-rule="nonzero"/><path fill="#b6a989" d="M 252.101562 203.53125 C 233.105469 218.214844 213.796875 234.730469 196.519531 250.886719 C 177.882812 245.089844 159.335938 238.964844 140.894531 232.511719 C 140.195312 232.667969 140.839844 233.761719 141.503906 234.039062 C 149.453125 237.34375 157.652344 239.945312 165.839844 242.542969 C 175.378906 245.570312 184.914062 248.597656 194.457031 251.621094 C 195.007812 251.796875 195.578125 251.972656 196.148438 251.882812 C 196.796875 251.777344 197.347656 251.347656 197.863281 250.925781 C 216.117188 236.003906 231.558594 218.734375 251.785156 206.851562 C 251.253906 206.019531 252.460938 203.660156 252.101562 203.53125 Z M 252.101562 203.53125 " fill-opacity="1" fill-rule="nonzero"/><path fill="#b6a989" d="M 249.34375 210.558594 C 230.773438 225.648438 212.203125 240.746094 193.628906 255.835938 C 175.226562 250.453125 157.226562 243.601562 139.839844 235.359375 C 139.480469 236.460938 140.738281 237.34375 141.777344 237.777344 C 158.234375 244.632812 174.90625 250.929688 191.75 256.671875 C 192.550781 256.941406 193.386719 257.21875 194.214844 257.078125 C 195.152344 256.925781 195.929688 256.269531 196.660156 255.636719 C 214.414062 240.316406 232.523438 225.441406 249.339844 210.558594 Z M 249.34375 210.558594 " fill-opacity="1" fill-rule="nonzero"/><path fill="#b6a989" d="M 141.019531 227.191406 C 157.6875 235.886719 175.351562 242.523438 193.527344 246.910156 C 193.652344 246.3125 193.777344 245.71875 193.898438 245.121094 C 176.226562 241.171875 159.109375 234.542969 143.265625 225.515625 C 142.199219 224.910156 141.144531 224.296875 141.019531 227.191406 Z M 141.019531 227.191406 " fill-opacity="1" fill-rule="nonzero"/><path fill="#951b1e" d="M 252.121094 212.582031 C 233.863281 230.863281 210.066406 244.683594 193.902344 261.445312 C 193.859375 262.019531 193.492188 263.269531 193.332031 264.222656 C 193.28125 264.527344 193.625 264.734375 193.859375 264.539062 L 249.351562 218.484375 C 251.460938 216.730469 253.792969 214.441406 252.121094 212.585938 Z M 252.121094 212.582031 " fill-opacity="1" fill-rule="nonzero"/><g clip-path="url(#6c9e48450c)"><path fill="#951b1e" d="M 252.746094 190.855469 C 215.429688 224.5 202.742188 233.015625 193.246094 242.855469 C 193.046875 243.792969 194.519531 247.027344 195.214844 246.398438 C 214.648438 228.878906 234.097656 210.269531 253.53125 192.75 C 252.867188 192.171875 252.753906 191.867188 252.746094 190.855469 Z M 252.746094 190.855469 " fill-opacity="1" fill-rule="nonzero"/></g><path fill="#951b1e" d="M 198.195312 179.34375 C 182.527344 190.929688 166.078125 206.574219 149.921875 217.417969 C 147.945312 218.742188 145.839844 220.035156 143.496094 220.269531 C 158.445312 208.445312 173.394531 196.621094 188.34375 184.800781 C 190.726562 182.914062 197.003906 177.410156 198.195312 179.34375 Z M 198.195312 179.34375 " fill-opacity="1" fill-rule="nonzero"/><path fill="#951b1e" d="M 143.730469 223.273438 C 156.117188 227.773438 168.507812 232.277344 180.894531 236.773438 C 184.824219 238.199219 188.765625 239.632812 192.824219 240.585938 C 192.320312 240.96875 191.8125 241.355469 191.308594 241.738281 C 188.382812 239.964844 185.128906 238.882812 181.902344 237.8125 C 169.25 233.617188 156.597656 229.425781 143.945312 225.230469 C 142.714844 224.824219 141.457031 224.410156 143.730469 223.273438 Z M 143.730469 223.273438 " fill-opacity="1" fill-rule="nonzero"/><path fill="#951b1e" d="M 140.609375 224.53125 C 138.667969 229.613281 137.394531 234.964844 136.839844 240.398438 C 136.167969 240.039062 135.390625 239.890625 134.640625 239.984375 C 136.347656 233.558594 137.785156 227.054688 140.609375 224.53125 Z M 140.609375 224.53125 " fill-opacity="1" fill-rule="nonzero"/><path fill="#951b1e" d="M 140.726562 242.855469 C 145.632812 243.144531 150.125 245.644531 154.527344 247.917969 C 165.917969 253.800781 177.882812 258.492188 190.175781 261.898438 C 190.464844 263.234375 188.363281 263.417969 187.132812 262.914062 C 171.101562 256.289062 155.070312 249.660156 140.722656 242.859375 Z M 140.726562 242.855469 " fill-opacity="1" fill-rule="nonzero"/><g clip-path="url(#b3dfac5dbe)"><path fill="#591218" d="M 252.558594 193.160156 C 233.085938 210.667969 213.621094 228.175781 194.152344 245.683594 C 195.417969 245.382812 196.515625 244.59375 197.574219 243.808594 C 214.78125 231.105469 230.800781 216.675781 245.542969 200.960938 C 247.359375 198.789062 249.480469 196.898438 251.820312 195.351562 C 252.460938 194.929688 253.167969 194.476562 253.421875 193.730469 C 253.675781 192.984375 253.53125 192.285156 252.558594 193.160156 Z M 252.558594 193.160156 " fill-opacity="1" fill-rule="nonzero"/></g><path fill="#591218" d="M 251.835938 210.320312 C 233.953125 228.09375 211.027344 241.714844 194.753906 261.078125 C 193.828125 260.992188 194.261719 259.480469 194.9375 258.8125 C 210.613281 243.324219 226.257812 229.367188 243.835938 216.253906 C 246.292969 214.417969 249.921875 212.089844 251.316406 209.304688 C 251.730469 209.035156 251.792969 209.863281 251.835938 210.320312 Z M 251.835938 210.320312 " fill-opacity="1" fill-rule="nonzero"/><g clip-path="url(#c642ff68b9)"><path fill="#591218" d="M 252.414062 211.832031 C 251.476562 215.226562 249.25 218.101562 246.445312 220.253906 C 230.296875 232.636719 216.214844 246.59375 200.070312 258.976562 C 197 261.328125 196.398438 263.972656 193.242188 264.589844 C 193.359375 265.511719 195.0625 264.984375 196.253906 263.785156 C 212.4375 247.527344 238.394531 230.785156 252.507812 216.605469 C 252.800781 216.3125 253.164062 215.820312 252.414062 211.835938 Z M 252.414062 211.832031 " fill-opacity="1" fill-rule="nonzero"/></g><path fill="#591218" d="M 192.300781 259.683594 C 174.058594 252.5 155.816406 245.316406 137.570312 238.136719 C 137.5625 238.476562 137.558594 238.820312 137.554688 239.019531 C 147.621094 243.378906 157.683594 247.746094 167.75 252.109375 C 175.972656 255.671875 184.257812 259.261719 192.984375 261.148438 C 193.296875 261.21875 193.699219 261.238281 193.847656 260.949219 C 193.992188 260.660156 193.492188 260.152344 192.300781 259.683594 Z M 192.300781 259.683594 " fill-opacity="1" fill-rule="nonzero"/><path fill="#591218" d="M 192.289062 243.363281 C 174.746094 238.285156 157.542969 231.933594 140.851562 224.371094 C 141.085938 224.753906 141.492188 224.984375 141.878906 225.199219 C 158.027344 234.121094 174.972656 242.1875 193.085938 244.910156 C 192.84375 244.457031 192.605469 244.007812 192.289062 243.367188 Z M 192.289062 243.363281 " fill-opacity="1" fill-rule="nonzero"/><path fill="#591218" d="M 141.261719 226.671875 C 141.386719 227.664062 141.515625 228.65625 141.640625 229.648438 C 142.816406 229.878906 143.945312 230.355469 144.945312 231.035156 C 143.476562 230.847656 142.03125 230.464844 140.648438 229.90625 C 140.664062 230.953125 139.308594 231.925781 139.871094 232.796875 C 140.007812 233.007812 140.234375 233.136719 140.449219 233.257812 C 141.652344 233.9375 142.855469 234.609375 144.0625 235.285156 C 142.777344 234.847656 141.488281 234.40625 140.203125 233.964844 C 140.039062 233.910156 139.859375 233.851562 139.695312 233.910156 C 139.113281 234.105469 139.539062 235.167969 139.09375 235.601562 C 139.550781 235.902344 140.003906 236.203125 140.460938 236.5 C 139.96875 236.394531 139.476562 236.285156 138.980469 236.175781 C 138.820312 236.867188 138.660156 237.5625 138.5 238.253906 C 139.074219 238.457031 139.652344 238.664062 140.226562 238.867188 C 139.082031 238.976562 137.910156 238.765625 136.871094 238.253906 C 138 233.410156 139.28125 228.605469 140.707031 223.84375 C 140.921875 224.699219 141.125 225.558594 141.265625 226.667969 Z M 141.261719 226.671875 " fill-opacity="1" fill-rule="nonzero"/><path fill="#f5f6f6" d="M 177.625 231.003906 C 175.585938 233.054688 172.351562 233.554688 169.402344 233.328125 C 164.148438 232.933594 159.085938 230.542969 155.554688 226.789062 C 152.023438 223.035156 150.0625 217.960938 150.191406 212.90625 C 150.242188 210.941406 150.605469 208.949219 151.523438 207.1875 C 154.226562 201.996094 161.539062 200.730469 167.289062 198.917969 C 190.191406 191.695312 210.234375 177.835938 226.015625 160.527344 C 233.753906 158.085938 243.453125 166.101562 239.792969 178.0625 C 226.796875 183.566406 215.132812 191.714844 204.847656 201.113281 C 194.5625 210.515625 186.601562 221.996094 177.628906 231.007812 Z M 177.625 231.003906 " fill-opacity="1" fill-rule="nonzero"/><path fill="#edebeb" d="M 180.101562 223.886719 C 190.972656 209.761719 204.875 198.3125 218.644531 186.996094 C 225.394531 181.449219 232.308594 175.8125 240.496094 172.777344 C 240.078125 174.660156 239.660156 176.535156 239.242188 178.417969 C 234.023438 180.140625 229.332031 183.148438 224.855469 186.339844 C 206.316406 199.558594 190.570312 216.277344 175.621094 233.453125 C 177.683594 230.605469 177.90625 226.738281 180.101562 223.886719 Z M 180.101562 223.886719 " fill-opacity="1" fill-rule="nonzero"/><path fill="#efb94d" d="M 194.539062 185.996094 C 200.140625 189.445312 203.492188 196.242188 202.8125 202.785156 C 207.199219 199.621094 211.378906 196.171875 215.316406 192.472656 C 215.707031 192.105469 216.109375 191.710938 216.261719 191.199219 C 216.394531 190.757812 216.324219 190.285156 216.238281 189.832031 C 215.246094 184.636719 212.195312 179.863281 207.902344 176.773438 C 205.210938 179.011719 202.273438 180.945312 199.15625 182.535156 C 197.324219 183.46875 195.367188 184.335938 194.539062 185.992188 Z M 194.539062 185.996094 " fill-opacity="1" fill-rule="nonzero"/><path fill="#ecb13a" d="M 200.734375 192.820312 C 205.847656 191.082031 210.496094 188 214.082031 183.960938 C 215.484375 186.355469 216.402344 189.027344 216.761719 191.777344 C 216.804688 192.09375 216.835938 192.425781 216.730469 192.722656 C 216.605469 193.082031 216.304688 193.339844 216.019531 193.582031 C 211.535156 197.375 206.851562 200.921875 201.988281 204.210938 C 203.3125 201.9375 202.535156 199.074219 201.726562 196.574219 C 201.308594 195.28125 200.890625 193.992188 200.730469 192.820312 Z M 200.734375 192.820312 " fill-opacity="1" fill-rule="nonzero"/><path fill="#e0a62d" d="M 202.414062 199.195312 C 207.484375 196.546875 212.007812 192.855469 215.617188 188.417969 C 216.074219 189.542969 216.449219 190.695312 216.753906 191.871094 C 216.851562 192.253906 216.945312 192.652344 216.863281 193.042969 C 216.738281 193.644531 216.234375 194.082031 215.753906 194.46875 C 211.316406 198.074219 206.71875 201.488281 201.988281 204.695312 C 202.390625 202.890625 202.554688 201.035156 202.417969 199.199219 Z M 202.414062 199.195312 " fill-opacity="1" fill-rule="nonzero"/><path fill="#e0e1e0" d="M 156.5 204.449219 C 160.566406 203.261719 165.15625 204.089844 168.765625 206.160156 C 172.375 208.234375 175.058594 211.453125 176.871094 214.960938 C 178.605469 218.324219 179.597656 222.089844 179.035156 225.769531 C 178.765625 227.523438 178.101562 229.300781 176.703125 230.542969 C 175.574219 231.539062 174.054688 232.105469 172.511719 232.398438 C 170.46875 232.78125 168.320312 232.707031 166.328125 232.15625 C 161.886719 230.921875 158.628906 227.476562 156.246094 223.863281 C 154.21875 220.796875 152.609375 217.382812 152.503906 213.808594 C 152.394531 210.234375 153.324219 205.378906 156.5 204.453125 Z M 156.5 204.449219 " fill-opacity="1" fill-rule="nonzero"/><path fill="#c2c2c2" d="M 156.5 204.449219 C 151.511719 212.808594 156.914062 221.980469 162.503906 225.601562 C 163.96875 226.550781 166.355469 227.496094 167.953125 226.792969 C 169.957031 225.914062 170.457031 223.082031 170.910156 220.945312 C 171.183594 219.660156 171.335938 218.324219 171.125 217.027344 C 170.945312 215.90625 170.5 214.84375 169.980469 213.832031 C 167.605469 209.164062 161.53125 204.539062 156.5 204.453125 Z M 156.5 204.449219 " fill-opacity="1" fill-rule="nonzero"/><path fill="#cccccc" d="M 155.820312 204.992188 C 160.179688 206.648438 164.03125 209.742188 166.324219 213.804688 C 170.007812 220.328125 168.046875 230.480469 166.59375 230.898438 C 169.480469 230.722656 175.25 225.082031 178.753906 222.90625 C 178.535156 218.136719 176.585938 213.46875 173.34375 209.960938 C 170.105469 206.457031 165.605469 204.140625 160.867188 203.542969 C 158.757812 203.28125 156.273438 203.515625 155.820312 204.992188 Z M 155.820312 204.992188 " fill-opacity="1" fill-rule="nonzero"/></svg>