<svg xmlns="http://www.w3.org/2000/svg" xmlns:xlink="http://www.w3.org/1999/xlink" width="500" zoomAndPan="magnify" viewBox="0 0 375 374.999991" height="500" preserveAspectRatio="xMidYMid meet" version="1.0"><defs><clipPath id="44452b1d51"><path d="M 56 60.777344 L 320 60.777344 L 320 285 L 56 285 Z M 56 60.777344 " clip-rule="nonzero"/></clipPath><clipPath id="dd4e99714e"><path d="M 56 60.777344 L 320 60.777344 L 320 270 L 56 270 Z M 56 60.777344 " clip-rule="nonzero"/></clipPath><clipPath id="d0fd7fe828"><path d="M 39 106 L 176 106 L 176 345.027344 L 39 345.027344 Z M 39 106 " clip-rule="nonzero"/></clipPath><clipPath id="1dc4743c96"><path d="M 201 106 L 337 106 L 337 345.027344 L 201 345.027344 Z M 201 106 " clip-rule="nonzero"/></clipPath></defs><path fill="#f5bfa9" d="M 53.128906 114.203125 C 55.589844 115.039062 58.5 117.253906 60.328125 121.21875 C 62.171875 125.164062 62.960938 130.863281 63.578125 137.007812 C 64.183594 143.15625 64.648438 149.75 65.699219 156.019531 C 66.738281 162.289062 68.378906 168.25 72.636719 176.082031 C 76.910156 183.902344 83.800781 193.605469 85.828125 199.722656 C 87.875 205.820312 85.023438 208.316406 81.648438 208.5 C 78.273438 208.6875 74.371094 206.5625 69.511719 197.570312 C 64.648438 188.574219 58.859375 172.707031 54.554688 158.0625 C 50.265625 143.429688 47.476562 130.042969 46.394531 122.964844 C 45.308594 115.90625 45.945312 115.164062 47.277344 114.527344 C 48.605469 113.894531 50.652344 113.351562 53.128906 114.203125 Z M 53.128906 114.203125 " fill-opacity="1" fill-rule="evenodd"/><path fill="#f5bfa9" d="M 323.328125 114.203125 C 320.851562 115.039062 317.957031 117.253906 316.113281 121.21875 C 314.273438 125.164062 313.496094 130.863281 312.878906 137.007812 C 312.257812 143.15625 311.792969 149.75 310.757812 156.019531 C 309.703125 162.289062 308.078125 168.25 303.804688 176.082031 C 299.546875 183.902344 292.640625 193.605469 290.613281 199.722656 C 288.585938 205.820312 291.417969 208.316406 294.792969 208.5 C 298.171875 208.683594 302.085938 206.5625 306.949219 197.570312 C 311.796875 188.574219 317.601562 172.707031 321.890625 158.0625 C 326.195312 143.429688 328.980469 130.042969 330.066406 122.964844 C 331.132812 115.90625 330.515625 115.164062 329.183594 114.527344 C 327.835938 113.894531 325.804688 113.351562 323.328125 114.203125 Z M 323.328125 114.203125 " fill-opacity="1" fill-rule="evenodd"/><g clip-path="url(#44452b1d51)"><path fill="#eb4452" d="M 188.222656 110.101562 C 204.664062 77.21875 221.109375 60.78125 254.007812 60.78125 C 290.316406 60.78125 319.78125 90.242188 319.78125 126.558594 C 319.78125 192.324219 254.007812 218.949219 188.222656 284.730469 C 122.449219 218.949219 56.660156 192.324219 56.660156 126.558594 C 56.660156 90.238281 86.140625 60.78125 122.449219 60.78125 C 155.332031 60.777344 171.777344 77.21875 188.222656 110.101562 Z M 188.222656 110.101562 " fill-opacity="1" fill-rule="nonzero"/></g><path fill="#d24656" d="M 315.058594 117.53125 C 315.058594 184.535156 248.667969 212.027344 181.671875 278.289062 C 183.855469 280.394531 186.039062 282.546875 188.222656 284.726562 C 254.007812 218.949219 319.78125 192.320312 319.78125 126.558594 C 319.78125 114.050781 316.285156 102.359375 310.230469 92.40625 C 313.34375 100.179688 315.058594 108.648438 315.058594 117.53125 Z M 315.058594 117.53125 " fill-opacity="1" fill-rule="evenodd"/><path fill="#d24656" d="M 181.546875 118.292969 C 181.578125 121.046875 182.273438 121.109375 183.21875 119.34375 C 184.007812 117.890625 185.527344 115.085938 188.082031 109.824219 C 173.652344 81.042969 159.175781 64.925781 133.535156 61.476562 C 160.351562 69.15625 181.316406 100.628906 181.546875 118.292969 Z M 181.546875 118.292969 " fill-opacity="1" fill-rule="evenodd"/><path fill="#ef707e" d="M 132.296875 66.910156 C 107.910156 69.757812 87.175781 81.742188 70.097656 102.855469 C 81.835938 78.785156 102.566406 66.800781 132.296875 66.910156 Z M 132.296875 66.910156 " fill-opacity="1" fill-rule="evenodd"/><path fill="#ef707e" d="M 273.9375 71.925781 C 249.503906 69.492188 226.683594 76.753906 205.46875 93.738281 C 222.082031 72.730469 244.90625 65.453125 273.9375 71.925781 Z M 273.9375 71.925781 " fill-opacity="1" fill-rule="evenodd"/><g clip-path="url(#dd4e99714e)"><path fill="#ef707e" d="M 202.171875 127.503906 C 204.570312 133.433594 221.542969 136.234375 226.804688 134.3125 C 226.960938 134.253906 227.144531 134.144531 227.300781 134.082031 L 229.824219 133.105469 C 229.671875 138.429688 229.964844 139.808594 228.617188 144.855469 C 225.378906 145.117188 224.09375 144.359375 222.238281 144.761719 C 218.847656 145.492188 221.125 146.25 216.152344 145.335938 C 211.445312 144.46875 208.597656 141.746094 204.632812 143.402344 L 204.386719 147.796875 C 197.140625 147.332031 198.097656 144.191406 187.835938 141.976562 C 189.613281 132.65625 189.878906 134.265625 176.269531 136.234375 C 172.105469 136.835938 171.515625 137.980469 168.417969 139.421875 C 165.382812 140.847656 162.722656 141.15625 162.007812 138.105469 C 164.625 137.039062 168.308594 137.425781 170.074219 133.742188 L 170.539062 131.433594 C 171.113281 128.617188 172.027344 128.492188 173.867188 127.128906 C 177.398438 124.5 174.75 126.265625 176.128906 122.796875 C 187.878906 122.378906 197.960938 117.128906 202.171875 127.503906 Z M 188.222656 110.101562 C 190.046875 106.449219 191.890625 102.996094 193.75 99.730469 C 194.199219 99.542969 194.613281 99.328125 195.234375 99.15625 C 219.09375 92.4375 210.175781 92.050781 198.144531 92.46875 C 203.71875 83.878906 209.632812 77.035156 216.476562 71.941406 C 229.699219 72.980469 246.578125 72.933594 265.886719 61.863281 C 296.527344 67.449219 319.78125 94.3125 319.78125 126.558594 C 319.78125 147.054688 313.386719 163.761719 302.597656 179.023438 C 300.613281 174.90625 298.742188 170.632812 297.921875 167.601562 C 295.597656 160.183594 292.222656 160.757812 283.832031 153.976562 C 280.378906 153.4375 252.894531 145.832031 252.414062 145.925781 C 250.726562 158.53125 266.304688 151.902344 274.199219 161.050781 L 270.050781 168.746094 C 267.914062 171.609375 265.359375 171.703125 263.253906 173.699219 C 261.054688 175.757812 264.429688 174.410156 260.28125 176.6875 C 257.089844 178.4375 251.765625 181.609375 248.203125 182.335938 C 245.851562 177.476562 245.804688 171.964844 241.128906 167.523438 C 238.820312 165.324219 239.765625 166.746094 238.636719 163.324219 C 237.660156 160.386719 237.613281 160.894531 235.863281 158.804688 C 234.6875 157.394531 234.144531 156.21875 232.859375 154.394531 C 229.515625 149.65625 228.558594 152.984375 225.941406 148.230469 L 234.285156 163.292969 C 236.097656 165.726562 235.152344 166.667969 236.4375 169.238281 C 237.691406 171.761719 238.0625 170.507812 239.625 174.148438 C 241.65625 178.871094 245.804688 178.109375 247.367188 182.570312 C 248.484375 185.742188 245.914062 182.398438 249.828125 186.796875 C 253.746094 185.339844 258.019531 184.117188 261.691406 182.785156 C 261.488281 188.898438 258.144531 198.558594 254.722656 202.105469 L 246.019531 212.585938 C 242.335938 217.09375 241.777344 223.097656 244.207031 228.609375 L 245.417969 234.167969 C 232.363281 244.925781 218.382812 256.445312 204.136719 269.511719 C 203.828125 269.015625 203.535156 268.535156 203.285156 268.085938 C 202.4375 266.492188 202.359375 264.929688 201.894531 262.871094 C 199.601562 252.449219 194.660156 250.46875 196.566406 241.351562 C 198.164062 233.65625 199.339844 239.972656 197.835938 230.917969 C 197.324219 227.835938 198.519531 229.679688 196.769531 225.917969 C 194.804688 221.691406 189.492188 214.753906 189.601562 212.972656 C 190.171875 202.941406 192.449219 208.515625 188.546875 202.386719 L 183.238281 203.160156 L 181.457031 199.382812 C 173.808594 198.640625 174.070312 202.042969 169.90625 202.742188 C 155.570312 205.1875 140.117188 192.089844 143.335938 180.804688 C 145.660156 172.628906 140.332031 173.125 144.234375 165.449219 C 150.550781 152.984375 148.246094 159.394531 153.09375 153.589844 C 156.003906 150.121094 153.433594 149.378906 155.738281 145.941406 C 156.128906 145.367188 166.082031 137.425781 158.355469 136.621094 C 157.984375 136.574219 156.390625 136.824219 155.972656 136.882812 L 156.558594 125.074219 C 156.914062 122.132812 159.269531 123.046875 162.023438 123.167969 C 162.875 123.199219 164.8125 123.246094 165.617188 123.105469 C 168.730469 122.566406 169.75 119.113281 167.707031 116.28125 C 165.042969 112.59375 165.058594 116.417969 163.433594 113.078125 L 169.085938 110.675781 C 171.964844 109.53125 173.730469 107.953125 176.066406 105.738281 C 180.589844 101.464844 181.625 100.195312 182.816406 99.933594 C 184.644531 103.136719 186.425781 106.523438 188.222656 110.101562 Z M 56.90625 133.324219 C 56.753906 131.109375 56.660156 128.851562 56.660156 126.558594 C 56.660156 120.523438 57.480469 114.683594 59.011719 109.128906 C 62.636719 102.902344 66.707031 96.945312 71.167969 91.324219 L 74.09375 93.894531 C 72.4375 96.15625 72.328125 99.035156 75.996094 98.042969 C 77.964844 97.515625 79.234375 95.285156 80.71875 94.046875 L 82.269531 102.609375 C 90.785156 119.683594 51.71875 126.605469 58.625 132.78125 C 58.023438 132.953125 57.449219 133.136719 56.90625 133.324219 Z M 97.289062 65.78125 C 105.027344 62.558594 113.53125 60.78125 122.449219 60.78125 C 133.441406 60.78125 142.605469 62.621094 150.550781 66.304688 C 146.523438 70.65625 139.480469 74.464844 134.417969 75.917969 L 119.507812 82.484375 C 117.386719 83.410156 109.070312 91.339844 108.328125 92.621094 L 103.679688 92.40625 C 96.464844 73.984375 108.15625 83.890625 102.738281 66.136719 C 100.414062 65.59375 98.695312 65.515625 97.289062 65.78125 Z M 73.367188 88.628906 C 77.53125 83.628906 82.023438 78.90625 86.789062 74.480469 C 88.183594 77.667969 89.652344 91.988281 73.367188 88.628906 Z M 73.367188 88.628906 " fill-opacity="1" fill-rule="evenodd"/></g><path fill="#e86374" d="M 315.058594 117.53125 C 315.058594 137.828125 308.945312 154.503906 298.585938 169.71875 C 299.5625 172.476562 301.03125 175.804688 302.597656 179.023438 C 303.074219 178.339844 303.558594 177.644531 304.019531 176.964844 L 304.207031 176.667969 C 304.671875 175.988281 305.121094 175.308594 305.554688 174.625 L 305.742188 174.332031 C 306.175781 173.648438 306.59375 172.96875 307.011719 172.285156 L 307.179688 171.992188 C 307.597656 171.308594 308.003906 170.613281 308.390625 169.902344 L 308.542969 169.640625 C 308.945312 168.925781 309.332031 168.199219 309.71875 167.488281 L 309.828125 167.269531 C 310.230469 166.511719 310.617188 165.753906 310.992188 164.980469 L 311.082031 164.792969 C 311.453125 164.050781 311.808594 163.292969 312.152344 162.535156 L 312.242188 162.316406 C 312.582031 161.558594 312.910156 160.816406 313.234375 160.058594 L 313.324219 159.824219 C 313.636719 159.050781 313.945312 158.277344 314.238281 157.503906 L 314.316406 157.316406 C 314.625 156.511719 314.90625 155.691406 315.183594 154.886719 L 315.230469 154.761719 C 315.507812 153.925781 315.789062 153.089844 316.050781 152.238281 L 316.082031 152.113281 C 316.34375 151.277344 316.578125 150.441406 316.808594 149.605469 L 316.855469 149.453125 C 317.070312 148.601562 317.289062 147.765625 317.492188 146.898438 L 317.519531 146.757812 C 317.722656 145.890625 317.90625 145.023438 318.09375 144.140625 L 318.109375 144.035156 C 318.296875 143.136719 318.449219 142.222656 318.605469 141.292969 L 318.605469 141.277344 C 318.757812 140.351562 318.898438 139.40625 319.023438 138.460938 L 319.039062 138.398438 C 319.148438 137.472656 319.253906 136.542969 319.347656 135.597656 L 319.363281 135.488281 C 319.457031 134.5625 319.515625 133.617188 319.578125 132.671875 L 319.59375 132.546875 C 319.65625 131.589844 319.703125 130.613281 319.734375 129.636719 L 319.734375 129.574219 C 319.765625 128.585938 319.78125 127.5625 319.78125 126.554688 L 319.78125 126.507812 C 319.78125 126.046875 319.78125 125.582031 319.765625 125.132812 L 319.765625 124.960938 C 319.75 124.496094 319.734375 124.046875 319.71875 123.582031 L 319.703125 123.476562 C 319.6875 123.027344 319.671875 122.578125 319.640625 122.128906 L 319.625 121.988281 C 319.597656 121.539062 319.5625 121.074219 319.515625 120.625 L 319.503906 120.488281 C 319.472656 120.054688 319.425781 119.605469 319.378906 119.15625 L 319.363281 119.0625 C 319.316406 118.613281 319.253906 118.164062 319.191406 117.699219 L 319.175781 117.5625 C 319.113281 117.097656 319.039062 116.648438 318.976562 116.199219 L 318.960938 116.136719 C 318.898438 115.703125 318.820312 115.253906 318.726562 114.804688 L 318.710938 114.679688 C 318.636719 114.234375 318.542969 113.785156 318.449219 113.347656 L 318.433594 113.257812 C 318.34375 112.808594 318.25 112.375 318.15625 111.941406 L 318.140625 111.863281 C 318.03125 111.414062 317.925781 110.964844 317.816406 110.53125 L 317.785156 110.425781 C 317.675781 109.976562 317.550781 109.539062 317.445312 109.09375 L 317.429688 109.078125 C 317.304688 108.628906 317.183594 108.195312 317.058594 107.746094 L 317.027344 107.652344 C 316.886719 107.21875 316.765625 106.769531 316.625 106.335938 L 316.609375 106.304688 C 316.472656 105.871094 316.316406 105.441406 316.175781 105.007812 L 316.144531 104.945312 C 315.992188 104.511719 315.835938 104.078125 315.679688 103.644531 L 315.667969 103.582031 C 315.496094 103.164062 315.339844 102.730469 315.171875 102.296875 L 315.15625 102.28125 C 314.984375 101.847656 314.816406 101.429688 314.628906 100.996094 L 314.613281 100.949219 C 314.242188 100.082031 313.871094 99.230469 313.46875 98.394531 L 313.453125 98.378906 C 313.050781 97.53125 312.632812 96.679688 312.183594 95.855469 C 311.964844 95.441406 311.75 95.019531 311.515625 94.617188 L 311.515625 94.605469 C 311.097656 93.875 310.679688 93.132812 310.230469 92.421875 C 313.34375 100.179688 315.058594 108.660156 315.058594 117.53125 Z M 242.984375 224.570312 C 229.824219 235.4375 215.65625 246.96875 201.132812 259.992188 C 201.414062 260.886719 201.660156 261.832031 201.894531 262.871094 C 202.355469 264.929688 202.433594 266.492188 203.289062 268.085938 C 203.535156 268.535156 203.828125 269.015625 204.136719 269.511719 L 204.152344 269.496094 C 204.820312 268.894531 205.484375 268.289062 206.136719 267.683594 C 206.523438 267.328125 206.910156 266.988281 207.28125 266.648438 C 206.910156 266.988281 206.523438 267.328125 206.136719 267.683594 Z M 209.078125 265.039062 C 209.511719 264.636719 209.960938 264.234375 210.410156 263.84375 C 210.996094 263.320312 211.570312 262.792969 212.160156 262.28125 C 212.578125 261.925781 212.980469 261.554688 213.382812 261.199219 C 213.957031 260.6875 214.542969 260.191406 215.117188 259.679688 C 215.566406 259.28125 216.03125 258.890625 216.480469 258.488281 C 217.050781 257.996094 217.625 257.484375 218.199219 256.988281 C 218.601562 256.648438 218.988281 256.308594 219.390625 255.964844 C 220.011719 255.441406 220.613281 254.914062 221.21875 254.386719 C 221.621094 254.046875 222.023438 253.707031 222.425781 253.351562 C 223.027344 252.839844 223.632812 252.328125 224.222656 251.835938 C 224.609375 251.507812 224.996094 251.183594 225.382812 250.859375 C 226.003906 250.316406 226.636719 249.792969 227.257812 249.265625 L 228.355469 248.335938 C 228.976562 247.808594 229.609375 247.28125 230.230469 246.773438 L 231.191406 245.96875 C 231.886719 245.378906 232.566406 244.804688 233.265625 244.234375 L 233.992188 243.628906 C 234.734375 243.011719 235.480469 242.390625 236.207031 241.789062 L 236.855469 241.246094 C 237.628906 240.613281 238.421875 239.960938 239.195312 239.328125 L 239.707031 238.894531 C 240.570312 238.179688 241.425781 237.484375 242.257812 236.789062 L 242.351562 236.710938 L 244.195312 235.195312 L 244.8125 234.683594 L 245.09375 234.449219 L 245.417969 234.171875 L 244.207031 228.613281 C 243.636719 227.28125 243.21875 225.9375 242.984375 224.574219 Z M 209.078125 265.039062 C 208.472656 265.5625 207.886719 266.105469 207.28125 266.648438 Z M 209.078125 265.039062 " fill-opacity="1" fill-rule="evenodd"/><g clip-path="url(#d0fd7fe828)"><path fill="#fddbca" d="M 169.363281 311.125 C 165.539062 283.535156 166.15625 267.421875 159.6875 253.691406 C 153.214844 239.957031 139.652344 228.609375 129.632812 220.480469 C 119.597656 212.339844 113.125 207.402344 107.953125 198.792969 C 102.785156 190.167969 98.929688 177.863281 94.933594 169.269531 C 90.9375 160.660156 86.804688 155.753906 82.640625 154.363281 C 78.476562 152.984375 74.277344 155.121094 73.132812 160.800781 C 71.972656 166.5 73.875 175.742188 76.304688 183.015625 C 78.722656 190.308594 81.664062 195.632812 82.019531 196.871094 C 82.359375 198.109375 80.117188 195.246094 76.382812 189.566406 C 72.636719 183.867188 67.402344 175.335938 63.859375 166.453125 C 60.328125 157.582031 58.5 148.355469 57.324219 138.476562 C 56.148438 128.585938 55.605469 118.058594 52.121094 111.679688 C 48.621094 105.316406 42.183594 103.101562 40.402344 113.273438 C 38.621094 123.445312 41.5 145.984375 44.78125 165.367188 C 48.066406 184.75 51.765625 200.988281 55.453125 212.136719 C 59.152344 223.296875 62.820312 229.367188 69.339844 236.289062 C 75.84375 243.207031 85.179688 250.996094 93.167969 256.863281 C 101.160156 262.730469 107.800781 266.707031 113.3125 274.449219 C 118.808594 282.203125 123.175781 293.707031 126.519531 310.9375 C 128.269531 319.992188 129.757812 330.628906 130.746094 340.660156 L 175.121094 345.027344 C 173.574219 336.34375 170.414062 318.726562 169.363281 311.125 Z M 169.363281 311.125 " fill-opacity="1" fill-rule="evenodd"/></g><path fill="#fff4e9" d="M 74.929688 162.085938 C 75.179688 158.773438 77.238281 156.761719 78.785156 155.789062 C 80.332031 154.828125 81.371094 154.9375 82.78125 155.570312 C 84.175781 156.207031 85.9375 157.398438 87.609375 159.75 C 89.285156 162.121094 90.847656 165.664062 91.496094 167.695312 C 92.132812 169.707031 91.824219 170.203125 89.671875 171.316406 C 87.519531 172.429688 83.507812 174.164062 81.234375 174.800781 C 78.941406 175.433594 78.382812 174.984375 77.316406 172.476562 C 76.261719 169.96875 74.695312 165.386719 74.929688 162.085938 Z M 74.929688 162.085938 " fill-opacity="1" fill-rule="evenodd"/><path fill="#f5bfa9" d="M 86.109375 185.726562 C 88.214844 184.859375 92.207031 183.171875 94.253906 182.398438 C 96.296875 181.625 96.417969 181.734375 95.074219 182.460938 C 93.710938 183.1875 90.894531 184.535156 88.726562 185.355469 C 86.574219 186.160156 85.070312 186.472656 84.421875 186.578125 C 83.785156 186.6875 84.003906 186.609375 86.109375 185.726562 Z M 86.109375 185.726562 " fill-opacity="1" fill-rule="evenodd"/><path fill="#f5bfa9" d="M 71.492188 181.734375 C 74.542969 188.140625 78.957031 196.5625 82.097656 201.75 C 85.832031 207.894531 87.828125 209.507812 88.726562 209.925781 C 89.625 210.339844 89.4375 209.550781 88.167969 207.355469 C 86.898438 205.15625 84.558594 201.53125 81.386719 195.339844 L 81.339844 195.261719 C 81.695312 196.023438 81.925781 196.578125 82.019531 196.875 C 82.359375 198.113281 80.117188 195.25 76.382812 189.566406 C 74.914062 187.335938 73.226562 184.675781 71.492188 181.734375 Z M 71.492188 181.734375 " fill-opacity="1" fill-rule="evenodd"/><path fill="#f5bfa9" d="M 88.507812 190.757812 C 90.613281 189.894531 94.59375 188.21875 96.636719 187.429688 C 98.695312 186.65625 98.804688 186.765625 97.457031 187.492188 C 96.109375 188.21875 93.292969 189.566406 91.125 190.390625 C 88.957031 191.210938 87.453125 191.503906 86.820312 191.613281 C 86.171875 191.71875 86.402344 191.640625 88.507812 190.757812 Z M 88.507812 190.757812 " fill-opacity="1" fill-rule="evenodd"/><g clip-path="url(#1dc4743c96)"><path fill="#fddbca" d="M 207.09375 311.125 C 210.902344 283.535156 210.285156 267.421875 216.757812 253.691406 C 223.230469 239.957031 236.808594 228.609375 246.824219 220.480469 C 256.84375 212.339844 263.3125 207.402344 268.484375 198.792969 C 273.65625 190.167969 277.527344 177.863281 281.523438 169.269531 C 285.519531 160.660156 289.636719 155.753906 293.800781 154.363281 C 297.964844 152.984375 302.175781 155.121094 303.324219 160.800781 C 304.46875 166.5 302.5625 175.742188 300.148438 183.015625 C 297.71875 190.308594 294.777344 195.632812 294.4375 196.871094 C 294.082031 198.109375 296.324219 195.246094 300.070312 189.566406 C 303.804688 183.867188 309.050781 175.335938 312.582031 166.453125 C 316.113281 157.582031 317.941406 148.355469 319.132812 138.476562 C 320.308594 128.585938 320.835938 118.058594 324.332031 111.679688 C 327.816406 105.316406 334.257812 103.101562 336.039062 113.273438 C 337.820312 123.445312 334.941406 145.984375 331.65625 165.367188 C 328.375 184.75 324.671875 200.988281 320.988281 212.136719 C 317.304688 223.296875 313.617188 229.367188 307.117188 236.289062 C 300.597656 243.207031 291.261719 250.996094 283.269531 256.863281 C 275.28125 262.730469 268.640625 266.707031 263.140625 274.449219 C 257.628906 282.203125 253.265625 293.707031 249.917969 310.9375 C 248.171875 319.992188 246.699219 330.628906 245.707031 340.660156 L 201.332031 345.027344 C 202.867188 336.34375 206.042969 318.726562 207.09375 311.125 Z M 207.09375 311.125 " fill-opacity="1" fill-rule="evenodd"/></g><path fill="#fff4e9" d="M 301.511719 162.085938 C 301.265625 158.773438 299.203125 156.761719 297.65625 155.789062 C 296.109375 154.828125 295.070312 154.9375 293.679688 155.570312 C 292.269531 156.207031 290.503906 157.398438 288.847656 159.75 C 287.175781 162.121094 285.597656 165.664062 284.960938 167.695312 C 284.328125 169.707031 284.621094 170.203125 286.773438 171.316406 C 288.941406 172.429688 292.933594 174.164062 295.226562 174.800781 C 297.503906 175.433594 298.074219 174.984375 299.128906 172.476562 C 300.195312 169.96875 301.761719 165.386719 301.511719 162.085938 Z M 301.511719 162.085938 " fill-opacity="1" fill-rule="evenodd"/><path fill="#f5bfa9" d="M 290.335938 185.726562 C 288.230469 184.859375 284.25 183.171875 282.207031 182.398438 C 280.144531 181.625 280.039062 181.734375 281.386719 182.460938 C 282.730469 183.1875 285.550781 184.535156 287.71875 185.355469 C 289.886719 186.160156 291.386719 186.472656 292.023438 186.578125 C 292.671875 186.6875 292.4375 186.609375 290.335938 185.726562 Z M 290.335938 185.726562 " fill-opacity="1" fill-rule="evenodd"/><path fill="#f5bfa9" d="M 304.949219 181.734375 C 301.898438 188.140625 297.503906 196.5625 294.34375 201.75 C 290.609375 207.894531 288.628906 209.507812 287.730469 209.925781 C 286.820312 210.339844 287.003906 209.550781 288.273438 207.355469 C 289.542969 205.15625 291.898438 201.53125 295.070312 195.339844 L 295.101562 195.261719 C 294.761719 196.023438 294.511719 196.578125 294.4375 196.875 C 294.078125 198.113281 296.324219 195.25 300.070312 189.566406 C 301.527344 187.335938 303.214844 184.675781 304.949219 181.734375 Z M 304.949219 181.734375 " fill-opacity="1" fill-rule="evenodd"/><path fill="#f5bfa9" d="M 287.949219 190.757812 C 285.84375 189.894531 281.847656 188.21875 279.804688 187.429688 C 277.761719 186.65625 277.636719 186.765625 278.984375 187.492188 C 280.347656 188.21875 283.164062 189.566406 285.332031 190.390625 C 287.484375 191.210938 288.984375 191.503906 289.636719 191.613281 C 290.273438 191.71875 290.054688 191.640625 287.949219 190.757812 Z M 287.949219 190.757812 " fill-opacity="1" fill-rule="evenodd"/><path fill="#ffffff" d="M 174.984375 127.023438 L 201.460938 127.023438 L 201.460938 218.484375 L 174.984375 218.484375 Z M 174.984375 127.023438 " fill-opacity="1" fill-rule="evenodd"/><path fill="#ffffff" d="M 142.484375 159.515625 L 233.960938 159.515625 L 233.960938 185.992188 L 142.484375 185.992188 Z M 142.484375 159.515625 " fill-opacity="1" fill-rule="evenodd"/></svg>